<!-- <svg width="256" height="256" viewBox="0 0 256 256" fill="none" xmlns="http://www.w3.org/2000/svg">
<rect x="12" y="12" width="232" height="232" rx="30" fill="#6415FF"/> 
<rect x="12" y="12" width="232" height="232" rx="30" fill="brown"/>
<path d="M78.6614 96.3636H112.786V185H143.144V96.3636H177.269V71.5455H78.6614V96.3636Z" fill="white"/>

</svg> -->


<!-- <svg width="256" height="256" xmlns="http://www.w3.org/2000/svg" fill="none">
 <rect x="12" y="12" width="232" height="232" rx="30" fill="#6415FF"/> 

 <g>
  <title>Layer 1</title>
  <rect x="12" y="12" width="232" height="232" rx="20" fill="#7B341E" id="svg_1"/>
  <text fill="#ffffff" x="99.23979" y="111.87573" id="svg_3" stroke-width="0" font-size="24" font-family="Noto Sans JP" text-anchor="start" xml:space="preserve" stroke="null" transform="matrix(13.1542 0 0 6.25929 -1272.04 -522.583)" font-style="italic" font-weight="bold">S</text>
 </g>
</svg> -->

<svg width="256" height="256" xmlns="http://www.w3.org/2000/svg" fill="none">
 <!-- <rect x="12" y="12" width="232" height="232" rx="30" fill="#6415FF"/> -->

 <g>
  <title>Layer 1</title>
  <rect id="svg_1" fill="#3182ce" rx="20" height="232" width="232" y="12" x="12"/>
  <text font-weight="bold" font-style="italic" transform="matrix(13.1542 0 0 6.25929 -1272.04 -522.583)" stroke="null" xml:space="preserve" text-anchor="start" font-family="Noto Sans JP" font-size="24" stroke-width="0" id="svg_3" y="111.87573" x="99.23979" fill="#ffffff">S</text>
 </g>
</svg>
