<!-- <svg id="f0a8f4ba-cc2b-4400-9e08-d246a0bad060" data-name="Layer 1" xmlns="http://www.w3.org/2000/svg" width="1098.75" height="632.37039" viewBox="0 0 1098.75 632.37039">
<title>heatmap</title><ellipse cx="549.375" cy="600.77366" rx="549.375" ry="31.59674" fill="black"/>
<rect x="174.96748" width="825.31765" height="26.25696" fill="black"/>
<circle cx="197.05271" cy="12.74148" r="6.79546" fill="red"/><circle cx="219.13794" cy="12.74148" r="6.79546" fill="yellow"/>
<circle cx="241.22317" cy="12.74148" r="6.79546" fill="green"/>
 <polygon points="175.552 415.277 174.967 415.779 174.967 592.903 1000.285 592.903 1000.285 281.779 990.449 282.525 175.552 415.277" fill="#3f3d56"/> 
<polygon points="175.552 415.277 174.967 415.779 174.967 592.903 1000.285 592.903 1000.285 281.779 990.449 282.525 175.552 415.277" fill="red"/>
<rect x="234.5289" y="175.64069" width="230.47032" height="9.29316" fill="#3f3d56"/>
<rect x="234.5289" y="196.08564" width="230.47032" height="9.29316" fill="#3f3d56"/>
<rect x="234.5289" y="216.53058" width="78.06253" height="9.29316" fill="#3f3d56"/>
<rect x="704.5289" y="433.64069" width="230.47032" height="9.29316" fill="#fff"/>
<rect x="704.5289" y="454.08564" width="230.47032" height="9.29316" fill="#fff"/>
<rect x="704.5289" y="474.53058" width="78.06253" height="9.29316" fill="#fff"/>
<circle cx="561.33549" cy="575.26922" r="9.0658" fill="black"/>
<circle cx="587.6263" cy="576.1758" r="9.0658" fill="black"/>
<circle cx="613.91711" cy="577.08238" r="9.0658" fill="black"/>
<circle cx="587.70943" cy="576.1758" r="7.25264" fill="#3f3d56"/>
<rect x="310.5289" y="282.01368" width="78.06253" height="17.81006" fill="#3f3d56"/>
<rect x="774.5289" y="523.01368" width="78.06253" height="17.81006" fill="#fff"/>
<circle cx="350" cy="291.01368" r="54" fill="yellow" opacity="0.3"/>
<circle cx="350" cy="291.01368" r="36" fill="yellow" opacity="0.3"/>
<circle cx="350" cy="291.01368" r="25" fill="yellow"/>
<circle cx="804.375" cy="157.1852" r="54" fill="yellow" opacity="0.3"/>
<circle cx="804.375" cy="157.1852" r="36" fill="yellow" opacity="0.3"/>
<circle cx="804.375" cy="157.1852" r="25" fill="yellow"/>
<circle cx="814" cy="532.01368" r="54" fill="yellow" opacity="0.3"/>
<circle cx="814" cy="532.01368" r="36" fill="yellow" opacity="0.3"/>
<circle cx="814" cy="532.01368" r="25" fill="yellow"/>
<rect x="141.09287" y="215.02041" width="22.24232" height="28.59727" transform="translate(244.80285 330.54921) rotate(-177.77929)" fill="yellow"/>
<path d="M241.91491,314.67894s30.77895-14.70576,30.28646-2.00541-31.02521,21.05594-31.02521,21.05594Z" transform="translate(-50.625 -133.8148)" fill="#ffb9b9"/>
<path d="M225.02834,422.13944S239.54941,457.681,244.9146,483.328s13.53608,60.94229,3.02582,85.97362-40.39191,98.59934-40.69972,106.53706,2.55946,15.99857-3.79071,15.75232-40.90677-11.12588-42.30963-15.95007,11.79-17.032,11.79-17.032l32.57732-102.08224L171.5182,490.02139l-24.51648,99.215-4.80184,123.82843s-23.56691-7.2736-26.98824-1.04655c0,0-10.55875-14.71883-11.90005-21.13057s4.98653-128.59106,4.98653-128.59106-21.63236-139.16289-4.16937-138.4857S189.99232,382.62245,225.02834,422.13944Z" transform="translate(-50.625 -133.8148)" fill="#2f2e41"/>
<path d="M203.69623,685.2408s16.10862,35.60315,17.63461,37.25226,12.02317,17.95548,4.08545,17.64767-26.68044-8.98428-40.47584-22.23869-31.98406-36.21877-30.33495-37.74475,12.9466-5.85768,12.9466-5.85768Z" transform="translate(-50.625 -133.8148)" fill="#2f2e41"/>
<path d="M139.33261,705.00394s.97192,15.937,3.90076,22.4103,2.55947,15.99856-5.37825,15.69075-28.45267-4.2832-28.45267-4.2832-1.21817-9.58683.43093-11.11281,8.67647-18.74272,5.68607-23.62847S139.33261,705.00394,139.33261,705.00394Z" transform="translate(-50.625 -133.8148)" fill="#2f2e41"/>
<path d="M127.58939,187.8209s-16.922,26.37263-23.51842,32.47656,11.9616,19.543,11.9616,19.543l33.2153,4.46789s-.41786-30.2249,1.29281-33.33842S127.58939,187.8209,127.58939,187.8209Z" transform="translate(-50.625 -133.8148)" fill="#ffb9b9"/><path d="M156.45992,222.329s-6.84267,12.45411-13.19285,12.20786-39.1961-14.2394-40.599-19.0636-10.87963,34.5566-10.87963,34.5566L172.16,391.47053l19.60459-13.54915-9.49913-83.04478-7.80153-44.8206Z" transform="translate(-50.625 -133.8148)" fill="yellow"/>
<path d="M99.70361,348.91253c3.206,6.70666,5.20835,13.70047,4.9307,20.86031-.01231.31753-.02462.635-.05282.95187-.76057,14.69329-6.17341,31.68645-8.11534,44.04442-1.40908,8.86485-1.00808,15.33552,4.1797,16.85636,12.57723,3.66759-1.83379,6.28862,46.826,22.48494s57.15159,2.21623,57.27471-.95886-6.89116-27.29606-5.24206-28.822,23.07442,19.974,29.54772,17.04512.73874-19.05053.73874-19.05053-14.58264-33.954-14.27483-41.89176-22.08942-45.37466-22.08942-45.37466L178.193,235.89122s-5.85768-12.9466-13.73384-14.84195-14.411,2.621-14.411,2.621L163.228,252.80015l13.90546,51.417-2.32629,18.989s-16.17018-34.0156-26.7905-47.14689-33.26379-44.21805-33.26379-44.21805-5.28646-17.83738-1.2957-23.16791c3.99136-5.34632-16.64671-6.14663-25.4463,15.77118-4.66382,11.61641-12.23581,28.93924-16.97922,45.068-4.22682,14.28852-6.22343,27.646-2.03588,35.28111C75.396,316.45748,91.4958,331.78866,99.70361,348.91253Z" transform="translate(-50.625 -133.8148)" fill="#575a89"/>
<path d="M68.99574,304.79359c6.40029,11.66389,22.50006,26.99507,30.70787,44.11894,2.14378-7.72349,4.75909-15.71476,4.75909-15.71476s10.03082-53.66869-19.64-67.53872a19.85762,19.85762,0,0,0-13.79106,3.85343C66.8048,283.801,64.80819,297.15851,68.99574,304.79359Z" transform="translate(-50.625 -133.8148)" opacity="0.1"/>
<path d="M186.7818,301.41146l25.15446,7.33517,34.926,1.35436,3.593,30.348L193.05735,344.583S178.721,304.27874,186.7818,301.41146Z" transform="translate(-50.625 -133.8148)" fill="#575a89"/><path d="M145.764,403.451s33.65163,5.58313,25.971,15.7098-37.49194-.51979-37.49194-.51979Z" transform="translate(-50.625 -133.8148)" fill="#ffb9b9"/><path d="M104.58149,370.72471c-.76057,14.69329-6.17341,31.68645-8.11534,44.04442,10.72016,10.14608,20.91438,19.09523,24.75621,19.24421,7.93772.30781,20.69963-.78723,25.4007.985s7.4583-28.32955,7.4583-28.32955-2.80572-9.64839-15.32139-14.90351C130.31217,388.21008,114.119,378.56726,104.58149,370.72471Z" transform="translate(-50.625 -133.8148)" opacity="0.1"/>
<path d="M85.19206,256.13379s-26.86513-4.22165-25.41378,40.35271-2.83185,73.027,7.97315,81.39568,45.90258,46.29809,53.8403,46.6059,20.69964-.78724,25.40071.985,7.45829-28.32954,7.45829-28.32954S151.645,387.49514,139.12935,382.24s-42.00182-23.88779-41.75558-30.238,7.4583-28.32955,7.4583-28.32955S114.8629,270.00382,85.19206,256.13379Z" transform="translate(-50.625 -133.8148)" fill="#575a89"/><circle cx="100.65442" cy="58.10462" r="34.95222" fill="#ffb9b9"/>
<path d="M174.81363,141.82272a6.74905,6.74905,0,0,0,2.93882,1.47478,2.09716,2.09716,0,0,0,2.43029-1.68345c.79968,1.65841,1.70192,3.42593,3.33461,4.27689s4.15732.13741,4.39266-1.68864a7.706,7.706,0,0,0,1.77364,3.74392c1.013.96584,2.85,1.20961,3.73439.12482-.715,3.90745-.27369,7.92586-.49823,11.89184s-1.2821,8.17049-4.27847,10.7784c-4.36987,3.80334-10.94108,2.86467-16.68929,2.1441a5.06575,5.06575,0,0,0-2.61539.14307c-2.15231.917-2.05467,3.9131-2.08369,6.25243a17.37275,17.37275,0,0,1-15.21221,16.49749,8.70861,8.70861,0,0,1-6.47244-1.57964c-1.63206-1.38336-2.46572-3.63806-4.33585-4.67724-3.04207-1.6904-6.73153.77486-8.95568,3.45158s-4.4162,5.96933-7.86172,6.45932c-4.55691.648-8.02766-3.996-9.73047-8.27217a48.223,48.223,0,0,1,.95837-37.46978C125.15791,132.94937,157.66118,129.66876,174.81363,141.82272Z" transform="translate(-50.625 -133.8148)" fill="#2f2e41"/>
<path d="M1013.84731,697.58434c12.30975,20.99239,37.13647,29.30353,37.13647,29.30353s4.86866-25.72424-7.44108-46.71664-37.13647-29.30354-37.13647-29.30354S1001.53756,676.59194,1013.84731,697.58434Z" transform="translate(-50.625 -133.8148)" fill="black"/><path d="M1021.52851,690.25752c21.28835,11.79052,30.20667,36.40565,30.20667,36.40565s-25.59693,5.49892-46.88529-6.2916-30.20667-36.40564-30.20667-36.40564S1000.24015,678.467,1021.52851,690.25752Z" transform="translate(-50.625 -133.8148)" fill="yellow"/>
</svg> -->


<!-- <svg width="1098.75" height="632.37039" xmlns="http://www.w3.org/2000/svg" data-name="Layer 1">
 <title>heatmap</title>

  <polygon points="175.552 415.277 174.967 415.779 174.967 592.903 1000.285 592.903 1000.285 281.779 990.449 282.525 175.552 415.277" fill="#3f3d56"/> 
 <g>
  <title>Layer 1</title>
  <ellipse id="svg_1" fill="black" ry="31.59674" rx="549.375" cy="600.77366" cx="549.375"/>
  <rect id="svg_2" fill="black" height="26.25696" width="825.31765" x="174.96748"/>
  <circle id="svg_3" fill="red" r="6.79546" cy="65.74148" cx="200.05271"/>
  <circle id="svg_4" fill="yellow" r="6.79546" cy="79.74148" cx="241.13794"/>
  <circle id="svg_5" fill="green" r="6.79546" cy="90.74148" cx="290.22317"/>
  <polygon id="svg_6" fill="red" points="175.552 415.277 174.967 415.779 174.967 592.903 1000.285 592.903 1000.285 281.779 990.449 282.525 175.552 415.277"/>
  <rect id="svg_7" fill="#3f3d56" height="9.29316" width="230.47032" y="175.64069" x="234.5289"/>
  <rect id="svg_8" fill="#3f3d56" height="9.29316" width="230.47032" y="196.08564" x="234.5289"/>
  <rect id="svg_9" fill="#3f3d56" height="9.29316" width="78.06253" y="216.53058" x="234.5289"/>
  <rect id="svg_10" fill="#fff" height="9.29316" width="230.47032" y="433.64069" x="704.5289"/>
  <rect id="svg_11" fill="#fff" height="9.29316" width="230.47032" y="454.08564" x="704.5289"/>
  <rect id="svg_12" fill="#fff" height="9.29316" width="78.06253" y="474.53058" x="704.5289"/>
  <circle id="svg_13" fill="black" r="9.0658" cy="575.26922" cx="561.33549"/>
  <circle id="svg_14" fill="black" r="9.0658" cy="576.1758" cx="587.6263"/>
  <circle id="svg_15" fill="black" r="9.0658" cy="577.08238" cx="613.91711"/>
  <circle id="svg_16" fill="#3f3d56" r="7.25264" cy="576.1758" cx="587.70943"/>
  <rect id="svg_17" fill="#3f3d56" height="17.81006" width="78.06253" y="282.01368" x="310.5289"/>
  <rect id="svg_18" fill="#fff" height="17.81006" width="78.06253" y="523.01368" x="774.5289"/>
  <circle id="svg_19" opacity="0.3" fill="yellow" r="54" cy="291.01368" cx="350"/>
  <circle id="svg_20" opacity="0.3" fill="yellow" r="36" cy="291.01368" cx="347"/>
  <circle id="svg_21" fill="yellow" r="25" cy="159.01368" cx="811"/>
  <circle id="svg_22" opacity="0.3" fill="yellow" r="54" cy="157.1852" cx="804.375"/>
  <circle id="svg_23" opacity="0.3" fill="yellow" r="36" cy="157.1852" cx="804.375"/>
  <circle id="svg_24" fill="yellow" r="25" cy="157.1852" cx="804.375"/>
  <circle id="svg_25" opacity="0.3" fill="yellow" r="54" cy="532.01368" cx="814"/>
  <circle id="svg_26" opacity="0.3" fill="yellow" r="36" cy="532.01368" cx="814"/>
  <circle id="svg_27" fill="yellow" r="25" cy="532.01368" cx="814"/>
  <rect id="svg_28" transform="rotate(-177.779 244.803 330.549)" fill="yellow" height="28.59727" width="22.24232" y="545.56963" x="385.89573"/>
  <path id="svg_29" fill="#ffb9b9" d="m191.28991,180.86414s30.77895,-14.70576 30.28646,-2.00541s-31.02521,21.05594 -31.02521,21.05594l0.73875,-19.05053z"/>
  <path id="svg_30" fill="#2f2e41" d="m177.40334,290.32464s14.52107,35.54156 19.88626,61.18856s13.53608,60.94229 3.02582,85.97362s-40.39191,98.59934 -40.69972,106.53706s2.55946,15.99857 -3.79071,15.75232s-40.90677,-11.12588 -42.30963,-15.95007s11.79,-17.032 11.79,-17.032l32.57732,-102.08224l-33.98948,-66.5053l-24.51648,99.215l-4.80184,123.82843s-23.56691,-7.2736 -26.98824,-1.04655c0,0 -10.55875,-14.71883 -11.90005,-21.13057s4.98653,-128.59106 4.98653,-128.59106s-21.63236,-139.16289 -4.16937,-138.4857s85.86357,-41.18849 120.89959,-1.6715z"/>
  <path id="svg_31" fill="#2f2e41" d="m153.07123,551.426s16.10862,35.60315 17.63461,37.25226s12.02317,17.95548 4.08545,17.64767s-26.68044,-8.98428 -40.47584,-22.23869s-31.98406,-36.21877 -30.33495,-37.74475s12.9466,-5.85768 12.9466,-5.85768l36.14413,10.94119z"/>
  <path id="svg_32" fill="#2f2e41" d="m88.70761,571.18914s0.97192,15.937 3.90076,22.4103s2.55947,15.99856 -5.37825,15.69075s-28.45267,-4.2832 -28.45267,-4.2832s-1.21817,-9.58683 0.43093,-11.11281s8.67647,-18.74272 5.68607,-23.62847s23.81316,0.92343 23.81316,0.92343z"/>
  <path id="svg_33" fill="#ffb9b9" d="m76.96439,54.0061s-16.922,26.37263 -23.51842,32.47656s11.9616,19.543 11.9616,19.543l33.2153,4.46789s-0.41786,-30.2249 1.29281,-33.33842s-22.95129,-23.14903 -22.95129,-23.14903z"/>
  <path id="svg_34" fill="yellow" d="m105.83492,88.5142s-6.84267,12.45411 -13.19285,12.20786s-39.1961,-14.2394 -40.599,-19.0636s-10.87963,34.5566 -10.87963,34.5566l80.37156,141.44067l19.60459,-13.54915l-9.49913,-83.04478l-7.80153,-44.8206l-18.00401,-27.727z"/>
  <path id="svg_35" fill="#575a89" d="m49.07861,213.09773c3.206,6.70666 5.20835,13.70047 4.9307,20.86031c-0.01231,0.31753 -0.02462,0.635 -0.05282,0.95187c-0.76057,14.69329 -6.17341,31.68645 -8.11534,44.04442c-1.40908,8.86485 -1.00808,15.33552 4.1797,16.85636c12.57723,3.66759 -1.83379,6.28862 46.826,22.48494s57.15159,2.21623 57.27471,-0.95886s-6.89116,-27.29606 -5.24206,-28.822s23.07442,19.974 29.54772,17.04512s0.73874,-19.05053 0.73874,-19.05053s-14.58264,-33.954 -14.27483,-41.89176s-22.08942,-45.37466 -22.08942,-45.37466l-15.23371,-99.16652s-5.85768,-12.9466 -13.73384,-14.84195s-14.411,2.621 -14.411,2.621l13.17984,29.12988l13.90546,51.417l-2.32629,18.989s-16.17018,-34.0156 -26.7905,-47.14689s-33.26379,-44.21805 -33.26379,-44.21805s-5.28646,-17.83738 -1.2957,-23.16791c3.99136,-5.34632 -16.64671,-6.14663 -25.4463,15.77118c-4.66382,11.61641 -12.23581,28.93924 -16.97922,45.068c-4.22682,14.28852 -6.22343,27.646 -2.03588,35.28111c6.40022,11.66389 22.50002,26.99507 30.70783,44.11894z"/>
  <path id="svg_36" opacity="0.1" d="m18.37074,170.97879c6.40029,11.66389 22.50006,26.99507 30.70787,44.11894c2.14378,-7.72349 4.75909,-15.71476 4.75909,-15.71476s10.03082,-53.66869 -19.64,-67.53872a19.85762,19.85762 0 0 0 -13.79106,3.85343c-4.22684,14.28852 -6.22345,27.64603 -2.0359,35.28111z"/>
  <path id="svg_37" fill="#575a89" d="m136.1568,167.59666l25.15446,7.33517l34.926,1.35436l3.593,30.348l-57.39791,4.13401s-14.33635,-40.30426 -6.27555,-43.17154z"/>
  <path id="svg_38" fill="#ffb9b9" d="m95.139,269.6362s33.65163,5.58313 25.971,15.7098s-37.49194,-0.51979 -37.49194,-0.51979l11.52094,-15.19001z"/>
  <path id="svg_39" opacity="0.1" d="m53.95649,236.90991c-0.76057,14.69329 -6.17341,31.68645 -8.11534,44.04442c10.72016,10.14608 20.91438,19.09523 24.75621,19.24421c7.93772,0.30781 20.69963,-0.78723 25.4007,0.985s7.4583,-28.32955 7.4583,-28.32955s-2.80572,-9.64839 -15.32139,-14.90351c-8.4478,-3.5552 -24.64097,-13.19802 -34.17848,-21.04057z"/>
  <path id="svg_40" fill="#575a89" d="m34.56706,122.31899s-26.86513,-4.22165 -25.41378,40.35271s-2.83185,73.027 7.97315,81.39568s45.90258,46.29809 53.8403,46.6059s20.69964,-0.78724 25.40071,0.985s7.45829,-28.32954 7.45829,-28.32954s-2.80573,-9.6484 -15.32138,-14.90354s-42.00182,-23.88779 -41.75558,-30.238s7.4583,-28.32955 7.4583,-28.32955s10.03083,-53.66863 -19.64001,-67.53866z"/>
  <circle id="svg_41" fill="#ffb9b9" r="34.95222" cy="58.10462" cx="100.65442"/>
  <path id="svg_42" fill="#2f2e41" d="m124.18863,8.00792a6.74905,6.74905 0 0 0 2.93882,1.47478a2.09716,2.09716 0 0 0 2.43029,-1.68345c0.79968,1.65841 1.70192,3.42593 3.33461,4.27689s4.15732,0.13741 4.39266,-1.68864a7.706,7.706 0 0 0 1.77364,3.74392c1.013,0.96584 2.85,1.20961 3.73439,0.12482c-0.715,3.90745 -0.27369,7.92586 -0.49823,11.89184s-1.2821,8.17049 -4.27847,10.7784c-4.36987,3.80334 -10.94108,2.86467 -16.68929,2.1441a5.06575,5.06575 0 0 0 -2.61539,0.14307c-2.15231,0.917 -2.05467,3.9131 -2.08369,6.25243a17.37275,17.37275 0 0 1 -15.21221,16.49749a8.70861,8.70861 0 0 1 -6.47244,-1.57964c-1.63206,-1.38336 -2.46572,-3.63806 -4.33585,-4.67724c-3.04207,-1.6904 -6.73153,0.77486 -8.95568,3.45158s-4.4162,5.96933 -7.86172,6.45932c-4.55691,0.648 -8.02766,-3.996 -9.73047,-8.27217a48.223,48.223 0 0 1 0.95837,-37.46978c9.51494,-20.74107 42.01821,-24.02168 59.17066,-11.86772z"/>
  <path id="svg_43" fill="black" d="m963.22231,563.76954c12.30975,20.99239 37.13647,29.30353 37.13647,29.30353s4.86866,-25.72424 -7.44108,-46.71664s-37.13647,-29.30354 -37.13647,-29.30354s-4.86867,25.72425 7.44108,46.71665z"/>
  <path id="svg_44" fill="yellow" d="m970.90351,556.44272c21.28835,11.79052 30.20667,36.40565 30.20667,36.40565s-25.59693,5.49892 -46.88529,-6.2916s-30.20667,-36.40564 -30.20667,-36.40564s25.59693,-5.49893 46.88529,6.29159z"/>
 </g>
</svg> -->


<!-- <svg width="1098.75" height="632.37039" xmlns="http://www.w3.org/2000/svg" data-name="Layer 1">
 <title>heatmap</title>

 <g>
  <title>Layer 1</title>
  <ellipse id="svg_1" fill="black" ry="31.59674" rx="549.375" cy="600.77366" cx="549.375"/>
  <rect id="svg_2" fill="black" height="26.25696" width="825.31765" x="174.96748"/>
  <circle id="svg_3" fill="red" r="6.79546" cy="12.74148" cx="197.05271"/>
  <circle id="svg_4" fill="yellow" r="6.79546" cy="12.74148" cx="219.13794"/>
  <circle id="svg_5" fill="green" r="6.79546" cy="12.74148" cx="241.22317"/>
  <polygon id="svg_6" fill="#3f3d56" points="175.552 415.277 174.967 415.779 174.967 592.903 1000.285 592.903 1000.285 281.779 990.449 282.525 175.552 415.277"/>
  <polygon id="svg_7" fill="#7b341e" points="175.552 415.277 174.967 415.779 174.967 592.903 1000.285 592.903 1000.285 281.779 990.449 282.525 175.552 415.277"/>
  <rect id="svg_8" fill="#3f3d56" height="9.29316" width="230.47032" y="175.64069" x="234.5289"/>
  <rect id="svg_9" fill="#3f3d56" height="9.29316" width="230.47032" y="196.08564" x="234.5289"/>
  <rect id="svg_10" fill="#3f3d56" height="9.29316" width="78.06253" y="216.53058" x="234.5289"/>
  <rect id="svg_11" fill="#fff" height="9.29316" width="230.47032" y="433.64069" x="704.5289"/>
  <rect id="svg_12" fill="#fff" height="9.29316" width="230.47032" y="454.08564" x="704.5289"/>
  <rect id="svg_13" fill="#fff" height="9.29316" width="78.06253" y="474.53058" x="704.5289"/>
  <circle id="svg_14" fill="#e5e5e5" r="9.0658" cy="575.26922" cx="561.33549"/>
  <circle id="svg_15" fill="black" r="9.0658" cy="576.1758" cx="587.6263"/>
  <circle id="svg_16" fill="#e5e5e5" r="9.0658" cy="577.08238" cx="613.91711"/>
  <circle id="svg_17" fill="#b2b2b2" r="7.25264" cy="576.1758" cx="587.70943"/>
  <rect id="svg_18" fill="#ffffff" height="17.81006" width="78.06253" y="282.01368" x="310.5289"/>
  <rect id="svg_19" fill="#7b341e" height="17.81006" width="78.06253" y="523.01368" x="774.5289"/>
  <circle id="svg_20" opacity="0.3" fill="#f7a85d" r="54" cy="298.01368" cx="335"/>
  <circle id="svg_21" opacity="0.3" fill="#a86d39" r="36" cy="298.01368" cx="335"/>
  <circle id="svg_22" fill="#7f3f00" r="25" cy="298.01368" cx="335"/>
  <circle id="svg_23" opacity="0.3" fill="#f4a55a" r="54" cy="208.1852" cx="689.375"/>
  <path id="svg_24" d="m689.375,244.1852c-19.8895,0 -36,-16.1105 -36,-36c0,-19.8895 16.1105,-36 36,-36c19.8895,0 36,16.1105 36,36c0,19.8895 -16.1105,36 -36,36z" opacity="undefined" fill="#a86d39"/>
  <path id="svg_25" d="m690.375,233.1852c-13.81215,0 -25,-11.18785 -25,-25c0,-13.81215 11.18785,-25 25,-25c13.81215,0 25,11.18785 25,25c0,13.81215 -11.18785,25 -25,25z" opacity="undefined" fill="#7f3f00"/>
  <path id="svg_26" d="m822,589.01368c-29.83425,0 -54,-24.16575 -54,-54c0,-29.83425 24.16575,-54 54,-54c29.83425,0 54,24.16575 54,54c0,29.83425 -24.16575,54 -54,54z" opacity="undefined" fill="#f2a55e"/>
  <path id="svg_27" d="m822,571.01368c-19.8895,0 -36,-16.1105 -36,-36c0,-19.8895 16.1105,-36 36,-36c19.8895,0 36,16.1105 36,36c0,19.8895 -16.1105,36 -36,36z" opacity="undefined" stroke="null" fill="#a86d39"/>
  <circle id="svg_28" fill="#7f3f00" r="25" cy="534.01368" cx="823"/>
  <rect id="svg_29" transform="rotate(-177.779 244.803 330.549)" fill="yellow" height="28.59727" width="22.24232" y="545.56963" x="385.89573"/>
  <path id="svg_30" fill="#ffb9b9" d="m191.28991,180.86414s30.77895,-14.70576 30.28646,-2.00541s-31.02521,21.05594 -31.02521,21.05594l0.73875,-19.05053z"/>
  <path id="svg_31" fill="#2f2e41" d="m174.40334,288.32464s14.52107,35.54156 19.88626,61.18856s13.53608,60.94229 3.02582,85.97362s-40.39191,98.59934 -40.69972,106.53706s2.55946,15.99857 -3.79071,15.75232s-40.90677,-11.12588 -42.30963,-15.95007s11.79,-17.032 11.79,-17.032l32.57732,-102.08224l-33.98948,-66.5053l-24.51648,99.215l-4.80184,123.82843s-23.56691,-7.2736 -26.98824,-1.04655c0,0 -10.55875,-14.71883 -11.90005,-21.13057s4.98653,-128.59106 4.98653,-128.59106s-21.63236,-139.16289 -4.16937,-138.4857s85.86357,-41.18849 120.89959,-1.6715z"/>
  <path id="svg_32" fill="#2f2e41" d="m153.07123,551.426s16.10862,35.60315 17.63461,37.25226s12.02317,17.95548 4.08545,17.64767s-26.68044,-8.98428 -40.47584,-22.23869s-31.98406,-36.21877 -30.33495,-37.74475s12.9466,-5.85768 12.9466,-5.85768l36.14413,10.94119z"/>
  <path id="svg_33" fill="#2f2e41" d="m88.70761,571.18914s0.97192,15.937 3.90076,22.4103s2.55947,15.99856 -5.37825,15.69075s-28.45267,-4.2832 -28.45267,-4.2832s-1.21817,-9.58683 0.43093,-11.11281s8.67647,-18.74272 5.68607,-23.62847s23.81316,0.92343 23.81316,0.92343z"/>
  <path id="svg_34" fill="#ffb9b9" d="m76.96439,54.0061s-16.922,26.37263 -23.51842,32.47656s11.9616,19.543 11.9616,19.543l33.2153,4.46789s-0.41786,-30.2249 1.29281,-33.33842s-22.95129,-23.14903 -22.95129,-23.14903z"/>
  <path id="svg_35" fill="#bc6d23" d="m104.83492,84.5142s-6.84267,12.45411 -13.19285,12.20786s-39.1961,-14.2394 -40.599,-19.0636s-10.87963,34.5566 -10.87963,34.5566l80.37156,141.44067l19.60459,-13.54915l-9.49913,-83.04478l-7.80153,-44.8206l-18.00401,-27.727z"/>
  <path id="svg_36" fill="#575a89" d="m49.07861,215.09773c3.206,6.70666 5.20835,13.70047 4.9307,20.86031c-0.01231,0.31753 -0.02462,0.635 -0.05282,0.95187c-0.76057,14.69329 -6.17341,31.68645 -8.11534,44.04442c-1.40908,8.86485 -1.00808,15.33552 4.1797,16.85636c12.57723,3.66759 -1.83379,6.28862 46.826,22.48494s57.15159,2.21623 57.27471,-0.95886s-6.89116,-27.29606 -5.24206,-28.822s23.07442,19.974 29.54772,17.04512s0.73874,-19.05053 0.73874,-19.05053s-14.58264,-33.954 -14.27483,-41.89176s-22.08942,-45.37466 -22.08942,-45.37466l-15.23371,-99.16652s-5.85768,-12.9466 -13.73384,-14.84195s-14.411,2.621 -14.411,2.621l13.17984,29.12988l13.90546,51.417l-2.32629,18.989s-16.17018,-34.0156 -26.7905,-47.14689s-33.26379,-44.21805 -33.26379,-44.21805s-5.28646,-17.83738 -1.2957,-23.16791c3.99136,-5.34632 -16.64671,-6.14663 -25.4463,15.77118c-4.66382,11.61641 -12.23581,28.93924 -16.97922,45.068c-4.22682,14.28852 -6.22343,27.646 -2.03588,35.28111c6.40022,11.66389 22.50002,26.99507 30.70783,44.11894z"/>
  <path id="svg_37" opacity="0.1" d="m18.37074,170.97879c6.40029,11.66389 22.50006,26.99507 30.70787,44.11894c2.14378,-7.72349 4.75909,-15.71476 4.75909,-15.71476s10.03082,-53.66869 -19.64,-67.53872a19.85762,19.85762 0 0 0 -13.79106,3.85343c-4.22684,14.28852 -6.22345,27.64603 -2.0359,35.28111z"/>
  <path id="svg_38" fill="#575a89" d="m136.1568,167.59666l25.15446,7.33517l34.926,1.35436l3.593,30.348l-57.39791,4.13401s-14.33635,-40.30426 -6.27555,-43.17154z"/>
  <path id="svg_39" fill="#ffb9b9" d="m95.139,269.6362s33.65163,5.58313 25.971,15.7098s-37.49194,-0.51979 -37.49194,-0.51979l11.52094,-15.19001z"/>
  <path id="svg_40" opacity="0.1" d="m53.95649,236.90991c-0.76057,14.69329 -6.17341,31.68645 -8.11534,44.04442c10.72016,10.14608 20.91438,19.09523 24.75621,19.24421c7.93772,0.30781 20.69963,-0.78723 25.4007,0.985s7.4583,-28.32955 7.4583,-28.32955s-2.80572,-9.64839 -15.32139,-14.90351c-8.4478,-3.5552 -24.64097,-13.19802 -34.17848,-21.04057z"/>
  <path id="svg_41" fill="#575a89" d="m34.56706,122.31899s-26.86513,-4.22165 -25.41378,40.35271s-2.83185,73.027 7.97315,81.39568s45.90258,46.29809 53.8403,46.6059s20.69964,-0.78724 25.40071,0.985s7.45829,-28.32954 7.45829,-28.32954s-2.80573,-9.6484 -15.32138,-14.90354s-42.00182,-23.88779 -41.75558,-30.238s7.4583,-28.32955 7.4583,-28.32955s10.03083,-53.66863 -19.64001,-67.53866z"/>
  <circle id="svg_42" fill="#ffb9b9" r="34.95222" cy="58.10462" cx="100.65442"/>
  <path id="svg_43" fill="#2f2e41" d="m124.18863,8.00792a6.74905,6.74905 0 0 0 2.93882,1.47478a2.09716,2.09716 0 0 0 2.43029,-1.68345c0.79968,1.65841 1.70192,3.42593 3.33461,4.27689s4.15732,0.13741 4.39266,-1.68864a7.706,7.706 0 0 0 1.77364,3.74392c1.013,0.96584 2.85,1.20961 3.73439,0.12482c-0.715,3.90745 -0.27369,7.92586 -0.49823,11.89184s-1.2821,8.17049 -4.27847,10.7784c-4.36987,3.80334 -10.94108,2.86467 -16.68929,2.1441a5.06575,5.06575 0 0 0 -2.61539,0.14307c-2.15231,0.917 -2.05467,3.9131 -2.08369,6.25243a17.37275,17.37275 0 0 1 -15.21221,16.49749a8.70861,8.70861 0 0 1 -6.47244,-1.57964c-1.63206,-1.38336 -2.46572,-3.63806 -4.33585,-4.67724c-3.04207,-1.6904 -6.73153,0.77486 -8.95568,3.45158s-4.4162,5.96933 -7.86172,6.45932c-4.55691,0.648 -8.02766,-3.996 -9.73047,-8.27217a48.223,48.223 0 0 1 0.95837,-37.46978c9.51494,-20.74107 42.01821,-24.02168 59.17066,-11.86772z"/>
  <path id="svg_44" fill="black" d="m963.22231,563.76954c12.30975,20.99239 37.13647,29.30353 37.13647,29.30353s4.86866,-25.72424 -7.44108,-46.71664s-37.13647,-29.30354 -37.13647,-29.30354s-4.86867,25.72425 7.44108,46.71665z"/>
  <path id="svg_45" fill="#bf5f00" d="m970.90351,556.44272c21.28835,11.79052 30.20667,36.40565 30.20667,36.40565s-25.59693,5.49892 -46.88529,-6.2916s-30.20667,-36.40564 -30.20667,-36.40564s25.59693,-5.49893 46.88529,6.29159z"/>
  <text transform="matrix(4.00006 0 0 2.39888 -896.523 -111.194)" stroke="null" font-weight="normal" font-style="normal" xml:space="preserve" text-anchor="start" font-family="Noto Sans JP" font-size="24" stroke-width="0" id="svg_47" y="104.81482" x="289.625" fill="#000000">Text</text>
  <text transform="matrix(1.68143 0 0 1.55871 -548.587 -207.069)" stroke="null" font-weight="bold" font-style="italic" xml:space="preserve" text-anchor="start" font-family="Noto Sans JP" font-size="24" stroke-width="0" id="svg_48" y="387.81482" x="762.21973" fill="#ffffff">Summary</text>
  <circle id="svg_49" opacity="0.3" fill="#f4a55a" r="54" cy="208.1852" cx="689.375"/>
  <path id="svg_50" d="m689.375,244.1852c-19.8895,0 -36,-16.1105 -36,-36c0,-19.8895 16.1105,-36 36,-36c19.8895,0 36,16.1105 36,36c0,19.8895 -16.1105,36 -36,36z" opacity="undefined" fill="#a86d39"/>
  <path id="svg_51" d="m690.375,233.1852c-13.81215,0 -25,-11.18785 -25,-25c0,-13.81215 11.18785,-25 25,-25c13.81215,0 25,11.18785 25,25c0,13.81215 -11.18785,25 -25,25z" opacity="undefined" fill="#7f3f00"/>
  <circle id="svg_52" opacity="0.3" fill="#f4a55a" r="54" cy="208.1852" cx="689.375"/>
  <path id="svg_53" d="m689.375,244.1852c-19.8895,0 -36,-16.1105 -36,-36c0,-19.8895 16.1105,-36 36,-36c19.8895,0 36,16.1105 36,36c0,19.8895 -16.1105,36 -36,36z" opacity="undefined" fill="#a86d39"/>
  <path id="svg_54" d="m690.375,233.1852c-13.81215,0 -25,-11.18785 -25,-25c0,-13.81215 11.18785,-25 25,-25c13.81215,0 25,11.18785 25,25c0,13.81215 -11.18785,25 -25,25z" opacity="undefined" fill="#7f3f00"/>
  <circle id="svg_55" opacity="0.3" fill="#f4a55a" r="54" cy="208.1852" cx="689.375"/>
  <path id="svg_56" d="m689.375,244.1852c-19.8895,0 -36,-16.1105 -36,-36c0,-19.8895 16.1105,-36 36,-36c19.8895,0 36,16.1105 36,36c0,19.8895 -16.1105,36 -36,36z" opacity="undefined" fill="#a86d39"/>
  <path id="svg_57" d="m690.375,233.1852c-13.81215,0 -25,-11.18785 -25,-25c0,-13.81215 11.18785,-25 25,-25c13.81215,0 25,11.18785 25,25c0,13.81215 -11.18785,25 -25,25z" opacity="undefined" fill="#7f3f00"/>
 </g>
</svg> -->


<svg width="1098.75" height="632.37039" xmlns="http://www.w3.org/2000/svg" data-name="Layer 1">
 <title>heatmap</title>

 <g>
  <title>Layer 1</title>
  <ellipse cx="549.375" cy="600.77366" rx="549.375" ry="31.59674" fill="black" id="svg_1"/>
  <rect x="174.96748" width="825.31765" height="26.25696" fill="black" id="svg_2"/>
  <circle cx="197.05271" cy="12.74148" r="6.79546" fill="red" id="svg_3"/>
  <circle cx="219.13794" cy="12.74148" r="6.79546" fill="yellow" id="svg_4"/>
  <circle cx="241.22317" cy="12.74148" r="6.79546" fill="green" id="svg_5"/>
  <polygon points="175.552 415.277 174.967 415.779 174.967 592.903 1000.285 592.903 1000.285 281.779 990.449 282.525 175.552 415.277" fill="#3f3d56" id="svg_6"/>
  <polygon points="175.552 415.277 174.967 415.779 174.967 592.903 1000.285 592.903 1000.285 281.779 990.449 282.525 175.552 415.277" fill="#3182ce" id="svg_7"/>
  <rect stroke="null" x="234.5289" y="175.64069" width="291.47033" height="9.29316" fill="#3f3d56" id="svg_8"/>
  <rect stroke="null" x="234.5289" y="196.08564" width="292.47033" height="9.29316" fill="#3f3d56" id="svg_9"/>
  <rect stroke="null" x="234.5289" y="216.53058" width="293.06253" height="9.29316" fill="#3f3d56" id="svg_10"/>
  <rect x="704.5289" y="433.64069" width="230.47032" height="9.29316" fill="#fff" id="svg_11"/>
  <rect x="704.5289" y="454.08564" width="230.47032" height="9.29316" fill="#fff" id="svg_12"/>
  <rect x="704.5289" y="474.53058" width="78.06253" height="9.29316" fill="#fff" id="svg_13"/>
  <circle cx="561.33549" cy="575.26922" r="9.0658" fill="#e5e5e5" id="svg_14"/>
  <circle cx="587.6263" cy="576.1758" r="9.0658" fill="black" id="svg_15"/>
  <circle cx="613.91711" cy="577.08238" r="9.0658" fill="#e5e5e5" id="svg_16"/>
  <circle cx="587.70943" cy="576.1758" r="7.25264" fill="#b2b2b2" id="svg_17"/>
  <rect x="310.5289" y="282.01368" width="78.06253" height="17.81006" fill="#ffffff" id="svg_18"/>
  <rect x="385.89573" y="545.56963" width="22.24232" height="28.59727" fill="yellow" transform="rotate(-177.779 244.803 330.549)" id="svg_29"/>
  <path d="m191.28991,180.86414s30.77895,-14.70576 30.28646,-2.00541s-31.02521,21.05594 -31.02521,21.05594l0.73875,-19.05053z" fill="#ffb9b9" id="svg_30"/>
  <path d="m174.40334,288.32464s14.52107,35.54156 19.88626,61.18856s13.53608,60.94229 3.02582,85.97362s-40.39191,98.59934 -40.69972,106.53706s2.55946,15.99857 -3.79071,15.75232s-40.90677,-11.12588 -42.30963,-15.95007s11.79,-17.032 11.79,-17.032l32.57732,-102.08224l-33.98948,-66.5053l-24.51648,99.215l-4.80184,123.82843s-23.56691,-7.2736 -26.98824,-1.04655c0,0 -10.55875,-14.71883 -11.90005,-21.13057s4.98653,-128.59106 4.98653,-128.59106s-21.63236,-139.16289 -4.16937,-138.4857s85.86357,-41.18849 120.89959,-1.6715z" fill="#2f2e41" id="svg_31"/>
  <path d="m153.07123,551.426s16.10862,35.60315 17.63461,37.25226s12.02317,17.95548 4.08545,17.64767s-26.68044,-8.98428 -40.47584,-22.23869s-31.98406,-36.21877 -30.33495,-37.74475s12.9466,-5.85768 12.9466,-5.85768l36.14413,10.94119z" fill="#2f2e41" id="svg_32"/>
  <path d="m88.70761,571.18914s0.97192,15.937 3.90076,22.4103s2.55947,15.99856 -5.37825,15.69075s-28.45267,-4.2832 -28.45267,-4.2832s-1.21817,-9.58683 0.43093,-11.11281s8.67647,-18.74272 5.68607,-23.62847s23.81316,0.92343 23.81316,0.92343z" fill="#2f2e41" id="svg_33"/>
  <path d="m76.96439,54.0061s-16.922,26.37263 -23.51842,32.47656s11.9616,19.543 11.9616,19.543l33.2153,4.46789s-0.41786,-30.2249 1.29281,-33.33842s-22.95129,-23.14903 -22.95129,-23.14903z" fill="#ffb9b9" id="svg_34"/>
  <path d="m104.83492,84.5142s-6.84267,12.45411 -13.19285,12.20786s-39.1961,-14.2394 -40.599,-19.0636s-10.87963,34.5566 -10.87963,34.5566l80.37156,141.44067l19.60459,-13.54915l-9.49913,-83.04478l-7.80153,-44.8206l-18.00401,-27.727z" fill="#3182ce" id="svg_35"/>
  <path d="m49.07861,215.09773c3.206,6.70666 5.20835,13.70047 4.9307,20.86031c-0.01231,0.31753 -0.02462,0.635 -0.05282,0.95187c-0.76057,14.69329 -6.17341,31.68645 -8.11534,44.04442c-1.40908,8.86485 -1.00808,15.33552 4.1797,16.85636c12.57723,3.66759 -1.83379,6.28862 46.826,22.48494s57.15159,2.21623 57.27471,-0.95886s-6.89116,-27.29606 -5.24206,-28.822s23.07442,19.974 29.54772,17.04512s0.73874,-19.05053 0.73874,-19.05053s-14.58264,-33.954 -14.27483,-41.89176s-22.08942,-45.37466 -22.08942,-45.37466l-15.23371,-99.16652s-5.85768,-12.9466 -13.73384,-14.84195s-14.411,2.621 -14.411,2.621l13.17984,29.12988l13.90546,51.417l-2.32629,18.989s-16.17018,-34.0156 -26.7905,-47.14689s-33.26379,-44.21805 -33.26379,-44.21805s-5.28646,-17.83738 -1.2957,-23.16791c3.99136,-5.34632 -16.64671,-6.14663 -25.4463,15.77118c-4.66382,11.61641 -12.23581,28.93924 -16.97922,45.068c-4.22682,14.28852 -6.22343,27.646 -2.03588,35.28111c6.40022,11.66389 22.50002,26.99507 30.70783,44.11894z" fill="#575a89" id="svg_36"/>
  <path d="m18.37074,170.97879c6.40029,11.66389 22.50006,26.99507 30.70787,44.11894c2.14378,-7.72349 4.75909,-15.71476 4.75909,-15.71476s10.03082,-53.66869 -19.64,-67.53872a19.85762,19.85762 0 0 0 -13.79106,3.85343c-4.22684,14.28852 -6.22345,27.64603 -2.0359,35.28111z" opacity="0.1" id="svg_37"/>
  <path d="m136.1568,167.59666l25.15446,7.33517l34.926,1.35436l3.593,30.348l-57.39791,4.13401s-14.33635,-40.30426 -6.27555,-43.17154z" fill="#575a89" id="svg_38"/>
  <path d="m95.139,269.6362s33.65163,5.58313 25.971,15.7098s-37.49194,-0.51979 -37.49194,-0.51979l11.52094,-15.19001z" fill="#ffb9b9" id="svg_39"/>
  <path d="m53.95649,236.90991c-0.76057,14.69329 -6.17341,31.68645 -8.11534,44.04442c10.72016,10.14608 20.91438,19.09523 24.75621,19.24421c7.93772,0.30781 20.69963,-0.78723 25.4007,0.985s7.4583,-28.32955 7.4583,-28.32955s-2.80572,-9.64839 -15.32139,-14.90351c-8.4478,-3.5552 -24.64097,-13.19802 -34.17848,-21.04057z" opacity="0.1" id="svg_40"/>
  <path d="m34.56706,122.31899s-26.86513,-4.22165 -25.41378,40.35271s-2.83185,73.027 7.97315,81.39568s45.90258,46.29809 53.8403,46.6059s20.69964,-0.78724 25.40071,0.985s7.45829,-28.32954 7.45829,-28.32954s-2.80573,-9.6484 -15.32138,-14.90354s-42.00182,-23.88779 -41.75558,-30.238s7.4583,-28.32955 7.4583,-28.32955s10.03083,-53.66863 -19.64001,-67.53866z" fill="#575a89" id="svg_41"/>
  <circle cx="100.65442" cy="58.10462" r="34.95222" fill="#ffb9b9" id="svg_42"/>
  <path d="m124.18863,8.00792a6.74905,6.74905 0 0 0 2.93882,1.47478a2.09716,2.09716 0 0 0 2.43029,-1.68345c0.79968,1.65841 1.70192,3.42593 3.33461,4.27689s4.15732,0.13741 4.39266,-1.68864a7.706,7.706 0 0 0 1.77364,3.74392c1.013,0.96584 2.85,1.20961 3.73439,0.12482c-0.715,3.90745 -0.27369,7.92586 -0.49823,11.89184s-1.2821,8.17049 -4.27847,10.7784c-4.36987,3.80334 -10.94108,2.86467 -16.68929,2.1441a5.06575,5.06575 0 0 0 -2.61539,0.14307c-2.15231,0.917 -2.05467,3.9131 -2.08369,6.25243a17.37275,17.37275 0 0 1 -15.21221,16.49749a8.70861,8.70861 0 0 1 -6.47244,-1.57964c-1.63206,-1.38336 -2.46572,-3.63806 -4.33585,-4.67724c-3.04207,-1.6904 -6.73153,0.77486 -8.95568,3.45158s-4.4162,5.96933 -7.86172,6.45932c-4.55691,0.648 -8.02766,-3.996 -9.73047,-8.27217a48.223,48.223 0 0 1 0.95837,-37.46978c9.51494,-20.74107 42.01821,-24.02168 59.17066,-11.86772z" fill="#2f2e41" id="svg_43"/>
  <path d="m963.22231,563.76954c12.30975,20.99239 37.13647,29.30353 37.13647,29.30353s4.86866,-25.72424 -7.44108,-46.71664s-37.13647,-29.30354 -37.13647,-29.30354s-4.86867,25.72425 7.44108,46.71665z" fill="black" id="svg_44"/>
  <path d="m970.90351,556.44272c21.28835,11.79052 30.20667,36.40565 30.20667,36.40565s-25.59693,5.49892 -46.88529,-6.2916s-30.20667,-36.40564 -30.20667,-36.40564s25.59693,-5.49893 46.88529,6.29159z" fill="#072847" id="svg_45"/>
  <text fill="#3182ce" x="289.625" y="104.81482" id="svg_47" stroke-width="0" font-size="24" font-family="Noto Sans JP" text-anchor="start" xml:space="preserve" font-style="italic" font-weight="normal" stroke="null" transform="matrix(4.00006 0 0 1.81575 -896.523 -46.3555)">Text</text>
  <text fill="#ffffff" x="762.21973" y="387.81482" id="svg_48" stroke-width="0" font-size="24" font-family="Noto Sans JP" text-anchor="start" xml:space="preserve" font-style="italic" font-weight="bold" stroke="null" transform="matrix(1.68143 0 0 1.55871 -548.587 -207.069)">Summary</text>
  <rect stroke="null" id="svg_63" height="9" width="293" y="234.81482" x="235.625" stroke-width="0" fill="#3f3d56"/>
  <rect stroke="null" id="svg_66" height="8" width="218.99998" y="252.81482" x="235.625" stroke-width="0" fill="#3f3d56"/>
  <rect stroke="null" id="svg_67" height="8" width="137" y="267.81482" x="236.625" stroke-width="0" fill="#3f3d56"/>
  <rect id="svg_68" height="0" width="1" y="298.81482" x="387.625" stroke-width="0" stroke="null" fill="#3f3d56"/>
  <ellipse stroke="null" ry="52.5" rx="55.5" id="svg_70" cy="179.31482" cx="731.125" fill="#74ace0"/>
  <ellipse id="svg_71" cy="191.81482" cx="869.625" fill="#1082ed"/>
  <ellipse stroke="null" id="svg_72" cy="191.81482" cx="737.625" fill="#1082ed"/>
  <ellipse id="svg_74" cy="220.81482" cx="824.625" stroke="null" fill="#2a6193"/>
  <ellipse stroke="null" id="svg_76" cy="236.81482" cx="830.625" fill="#2a6193"/>
  <ellipse stroke="null" ry="39.5" rx="41.5" id="svg_80" cy="179.31482" cx="731.125" fill="#2d509b"/>
  <path id="svg_77" d="m731.625,199.81482c-12.70718,0 -23,-9.39779 -23,-21c0,-11.60221 10.29282,-21 23,-21c12.70718,0 23,9.39779 23,21c0,11.60221 -10.29282,21 -23,21z" opacity="undefined" stroke="null" fill="#0e52f2"/>
  <ellipse id="svg_81" cy="161.81482" cx="892.625" stroke="null" fill="#8eaced"/>
 </g>
</svg>