<!-- <svg xmlns="http://www.w3.org/2000/svg" viewBox="0 0 24 24" width="24" height="24"><path fill="none" d="M0 0h24v24H0z"/><path d="M13 9h8L11 24v-9H4l9-15v9zm-2 2V7.22L7.532 13H13v4.394L17.263 11H11z" fill="#7B341E"/></svg> -->

<!-- <svg width="23.999999999999996" height="23.999999999999996" xmlns="http://www.w3.org/2000/svg">

 <g>
  <title>Layer 1</title>
  <path id="svg_1" d="m0,0l24,0l0,24l-24,0l0,-24z" fill="none"/>
  <path id="svg_6" d="m17.31339,3.38389c-1.45557,-1.42 -3.02548,-2.5575 -4.3133,-2.71258c-0.07011,-0.01006 -0.14272,-0.01593 -0.2195,-0.0176l-8.47553,0c-0.13521,0 -0.26875,0.05281 -0.36389,0.15088c-0.09431,0.09556 -0.15023,0.22968 -0.15023,0.36632l0,21.58494c0,0.1358 0.05258,0.26573 0.15023,0.36464c0.09765,0.09724 0.22618,0.15005 0.36389,0.15005l15.32689,0c0.13521,0 0.26457,-0.05197 0.36222,-0.15005c0.09765,-0.09808 0.1519,-0.228 0.1519,-0.36464l0,-14.36341c-0.03005,-1.66728 -1.33038,-3.48544 -2.83269,-5.00854zm1.80277,18.85308l-14.29865,0l0,-20.55221l7.96391,0l0,0.00168c0.3472,-0.02096 0.64683,0.32356 0.87635,1.11152c0.20865,0.75023 0.26123,1.72847 0.2604,2.40662c0.00167,0.49708 -0.02253,0.83071 -0.02253,0.83071l-0.0409,0.54654l0.54751,0.00587c0.0025,0 1.26528,0.01509 2.50385,0.29758c1.19016,0.25818 2.12076,0.77287 2.20756,1.35545c0.00334,0.05197 0.00417,0.10394 0.00334,0.15256l0,13.8437l-0.00083,0z" fill="#3182ce"/>
 </g>
</svg> -->


<svg width="23.999999999999996" height="23.999999999999996" xmlns="http://www.w3.org/2000/svg">
 <g>
  <title>Layer 1</title>
  <path fill="none" d="m-0.1087,0.1087l24,0l0,24l-24,0l0,-24z" id="svg_1"/>
  <path fill="#3182ce" d="m17.31339,3.38389c-1.45557,-1.42 -3.02548,-2.5575 -4.3133,-2.71258c-0.07011,-0.01006 -0.14272,-0.01593 -0.2195,-0.0176l-8.47553,0c-0.13521,0 -0.26875,0.05281 -0.36389,0.15088c-0.09431,0.09556 -0.15023,0.22968 -0.15023,0.36632l0,21.58494c0,0.1358 0.05258,0.26573 0.15023,0.36464c0.09765,0.09724 0.22618,0.15005 0.36389,0.15005l15.32689,0c0.13521,0 0.26457,-0.05197 0.36222,-0.15005c0.09765,-0.09808 0.1519,-0.228 0.1519,-0.36464l0,-14.36341c-0.03005,-1.66728 -1.33038,-3.48544 -2.83269,-5.00854l0.00001,-0.00001zm1.80277,18.85308l-14.29865,0l0,-20.55221l7.96391,0l0,0.00168c0.3472,-0.02096 0.64683,0.32356 0.87635,1.11152c0.20865,0.75023 0.26123,1.72847 0.2604,2.40662c0.00167,0.49708 -0.02253,0.83071 -0.02253,0.83071l-0.0409,0.54654l0.54751,0.00587c0.0025,0 1.26528,0.01509 2.50385,0.29758c1.19016,0.25818 2.12076,0.77287 2.20756,1.35545c0.00334,0.05197 0.00417,0.10394 0.00334,0.15256l0,13.8437l-0.00083,0l-0.00001,-0.00002z" id="svg_6"/>
  <rect id="svg_5" height="0.1087" width="0.1087" y="12.48913" x="28.9565" stroke="#000" fill="#3182ce"/>
  <path id="svg_10" d="m5.81919,11.21587l12.08486,0l0,0.92251l-12.08486,0l0,-0.92251z" opacity="undefined" stroke="null" fill="#3182ce"/>
  <path id="svg_11" d="m5.81919,13.33764l11.99261,0l0,0.92251l-11.99261,0l0,-0.92251z" opacity="undefined" stroke="null" fill="#3182ce"/>
  <rect id="svg_12" height="0.83026" width="12.08486" y="15.55165" x="5.81919" stroke="null" fill="#3182ce"/>
  <path id="svg_13" d="m6.0037,9.00185l9.96309,0l0,0.92251l-9.96309,0l0,-0.92251z" opacity="undefined" stroke="null" fill="#3182ce"/>
  <path id="svg_14" d="m6.09595,6.69558l6.36531,0l0,0.92251l-6.36531,0l0,-0.92251z" opacity="undefined" stroke="null" fill="#3182ce"/>
  <rect id="svg_16" height="0.92251" width="11.90035" y="17.67342" x="5.91144" fill="#3182ce"/>
 </g>

</svg>