<!-- <svg xmlns="http://www.w3.org/2000/svg" viewBox="0 0 24 24" width="24" height="24"><path fill="none" d="M0 0h24v24H0z"/><path d="M3.783 2.826L12 1l8.217 1.826a1 1 0 0 1 .783.976v9.987a6 6 0 0 1-2.672 4.992L12 23l-6.328-4.219A6 6 0 0 1 3 13.79V3.802a1 1 0 0 1 .783-.976zM5 4.604v9.185a4 4 0 0 0 1.781 3.328L12 20.597l5.219-3.48A4 4 0 0 0 19 13.79V4.604L12 3.05 5 4.604zM13 10h3l-5 7v-5H8l5-7v5z" fill="#3182ce"/></svg> -->

<svg width="24" height="24" xmlns="http://www.w3.org/2000/svg">

 <g>
  <title>Layer 1</title>
  <path id="svg_1" d="m0.23952,0l24,0l0,24l-24,0l0,-24z" fill="none"/>
  <path stroke="null" id="svg_5" d="m0.24878,7.09703l0,9.83158l5.57159,0l8.34066,6.88061l0.00496,-23.59281l-8.34189,6.88061l-5.57531,0zm17.11514,-1.13058c-0.48713,-0.48436 -1.26926,-0.48436 -1.75391,0.00249c-0.48341,0.48685 -0.48341,1.27502 0.00248,1.76311l0,-0.00249c1.0697,1.0758 1.72911,2.55128 1.72911,4.19112c0,1.6386 -0.65818,3.1091 -1.72664,4.1849c-0.48837,0.48436 -0.48837,1.27253 -0.00248,1.76187c0.2417,0.2428 0.55902,0.36482 0.87633,0.36482c0.31855,0 0.63587,-0.12202 0.87757,-0.36482c1.51468,-1.51906 2.45423,-3.62957 2.45299,-5.94676c0.00124,-2.32218 -0.94203,-4.43517 -2.45547,-5.95423zm2.84467,-2.85634c-0.48713,-0.48685 -1.26926,-0.48685 -1.75143,0c-0.48589,0.48685 -0.48589,1.27626 0,1.76062c1.79729,1.80669 2.90541,4.29198 2.90541,7.04871c0,2.75424 -1.10812,5.23828 -2.90293,7.04622c-0.48589,0.4856 -0.48589,1.27377 0,1.76062c0.2417,0.2428 0.55902,0.36482 0.87757,0.36482c0.31731,0 0.63463,-0.12202 0.87633,-0.36482c2.24103,-2.25245 3.63052,-5.37276 3.62804,-8.80684c0.00124,-3.43657 -1.38825,-6.55937 -3.633,-8.80933z" fill="#3182ce"/>
  <path id="svg_6" d="m15.0632,15.87339l0,0.03948l0.02248,0l0.03365,0.02763l0.00002,-0.09474l-0.03365,0.02763l-0.02249,0zm0.06904,-0.00454c-0.00197,-0.00195 -0.00512,-0.00195 -0.00708,0.00001c-0.00195,0.00196 -0.00195,0.00512 0.00001,0.00708l0,-0.00001c0.00432,0.00432 0.00698,0.01025 0.00698,0.01683c0,0.00658 -0.00266,0.01249 -0.00697,0.01681c-0.00197,0.00195 -0.00197,0.00511 -0.00001,0.00708c0.00098,0.00098 0.00226,0.00147 0.00354,0.00147c0.00129,0 0.00257,-0.00049 0.00354,-0.00147c0.00611,-0.0061 0.0099,-0.01458 0.0099,-0.02388c0.00001,-0.00933 -0.0038,-0.01781 -0.00991,-0.02391zm0.01148,-0.01147c-0.00197,-0.00196 -0.00512,-0.00196 -0.00707,0c-0.00196,0.00196 -0.00196,0.00513 0,0.00707c0.00725,0.00726 0.01172,0.01724 0.01172,0.02831c0,0.01106 -0.00447,0.02104 -0.01171,0.0283c-0.00196,0.00195 -0.00196,0.00512 0,0.00707c0.00098,0.00098 0.00226,0.00147 0.00354,0.00147c0.00128,0 0.00256,-0.00049 0.00354,-0.00147c0.00904,-0.00905 0.01465,-0.02158 0.01464,-0.03537c0.00001,-0.0138 -0.0056,-0.02634 -0.01466,-0.03538z" stroke="null" fill="#3182ce"/>
  <path id="svg_7" d="m12.67996,6.57878l0,0.03948l0.02248,0l0.03365,0.02763l0.00002,-0.09474l-0.03365,0.02763l-0.02249,0zm0.06904,-0.00454c-0.00197,-0.00195 -0.00512,-0.00195 -0.00708,0.00001c-0.00195,0.00196 -0.00195,0.00512 0.00001,0.00708l0,-0.00001c0.00432,0.00432 0.00698,0.01025 0.00698,0.01683c0,0.00658 -0.00266,0.01249 -0.00697,0.01681c-0.00197,0.00195 -0.00197,0.00511 -0.00001,0.00708c0.00098,0.00098 0.00226,0.00147 0.00354,0.00147c0.00129,0 0.00257,-0.00049 0.00354,-0.00147c0.00611,-0.0061 0.0099,-0.01458 0.0099,-0.02388c0.00001,-0.00933 -0.0038,-0.01781 -0.00991,-0.02391zm0.01148,-0.01147c-0.00197,-0.00196 -0.00512,-0.00196 -0.00707,0c-0.00196,0.00196 -0.00196,0.00513 0,0.00707c0.00725,0.00726 0.01172,0.01724 0.01172,0.02831c0,0.01106 -0.00447,0.02104 -0.01171,0.0283c-0.00196,0.00195 -0.00196,0.00512 0,0.00707c0.00098,0.00098 0.00226,0.00147 0.00354,0.00147c0.00128,0 0.00256,-0.00049 0.00354,-0.00147c0.00904,-0.00905 0.01465,-0.02158 0.01464,-0.03537c0.00001,-0.0138 -0.0056,-0.02634 -0.01466,-0.03538z" stroke="null" fill="#3182ce"/>
  <path id="svg_8" d="m11.84583,9.08118l0,0.03948l0.02248,0l0.03365,0.02763l0.00002,-0.09474l-0.03365,0.02763l-0.02249,0zm0.06904,-0.00454c-0.00197,-0.00195 -0.00512,-0.00195 -0.00708,0.00001c-0.00195,0.00196 -0.00195,0.00512 0.00001,0.00708l0,-0.00001c0.00432,0.00432 0.00698,0.01025 0.00698,0.01683c0,0.00658 -0.00266,0.01249 -0.00697,0.01681c-0.00197,0.00195 -0.00197,0.00511 -0.00001,0.00708c0.00098,0.00098 0.00226,0.00147 0.00354,0.00147c0.00129,0 0.00257,-0.00049 0.00354,-0.00147c0.00611,-0.0061 0.0099,-0.01458 0.0099,-0.02388c0.00001,-0.00933 -0.0038,-0.01781 -0.00991,-0.02391zm0.01148,-0.01147c-0.00197,-0.00196 -0.00512,-0.00196 -0.00707,0c-0.00196,0.00196 -0.00196,0.00513 0,0.00707c0.00725,0.00726 0.01172,0.01724 0.01172,0.02831c0,0.01106 -0.00447,0.02104 -0.01171,0.0283c-0.00196,0.00195 -0.00196,0.00512 0,0.00707c0.00098,0.00098 0.00226,0.00147 0.00354,0.00147c0.00128,0 0.00256,-0.00049 0.00354,-0.00147c0.00904,-0.00905 0.01465,-0.02158 0.01464,-0.03537c0.00001,-0.0138 -0.0056,-0.02634 -0.01466,-0.03538z" stroke="null" fill="#3182ce"/>
  <path id="svg_9" d="m8.86679,15.15842l0,0.03948l0.02248,0l0.03365,0.02763l0.00002,-0.09474l-0.03365,0.02763l-0.02249,0zm0.06904,-0.00454c-0.00197,-0.00195 -0.00512,-0.00195 -0.00708,0.00001c-0.00195,0.00196 -0.00195,0.00512 0.00001,0.00708l0,-0.00001c0.00432,0.00432 0.00698,0.01025 0.00698,0.01683c0,0.00658 -0.00266,0.01249 -0.00697,0.01681c-0.00197,0.00195 -0.00197,0.00511 -0.00001,0.00708c0.00098,0.00098 0.00226,0.00147 0.00354,0.00147c0.00129,0 0.00257,-0.00049 0.00354,-0.00147c0.00611,-0.0061 0.0099,-0.01458 0.0099,-0.02388c0.00001,-0.00933 -0.0038,-0.01781 -0.00991,-0.02391zm0.01148,-0.01147c-0.00197,-0.00196 -0.00512,-0.00196 -0.00707,0c-0.00196,0.00196 -0.00196,0.00513 0,0.00707c0.00725,0.00726 0.01172,0.01724 0.01172,0.02831c0,0.01106 -0.00447,0.02104 -0.01171,0.0283c-0.00196,0.00195 -0.00196,0.00512 0,0.00707c0.00098,0.00098 0.00226,0.00147 0.00354,0.00147c0.00128,0 0.00256,-0.00049 0.00354,-0.00147c0.00904,-0.00905 0.01465,-0.02158 0.01464,-0.03537c0.00001,-0.0138 -0.0056,-0.02634 -0.01466,-0.03538z" stroke="null" fill="#3182ce"/>
 </g>
</svg>
