<!-- <svg xmlns="http://www.w3.org/2000/svg" viewBox="0 0 24 24" width="24" height="24"><path fill="none" d="M0 0h24v24H0z"/><path d="M17.841 15.659l.176.177.178-.177a2.25 2.25 0 0 1 3.182 3.182l-3.36 3.359-3.358-3.359a2.25 2.25 0 0 1 3.182-3.182zM12 14v2a6 6 0 0 0-6 6H4a8 8 0 0 1 7.75-7.996L12 14zm0-13c3.315 0 6 2.685 6 6a5.998 5.998 0 0 1-5.775 5.996L12 13c-3.315 0-6-2.685-6-6a5.998 5.998 0 0 1 5.775-5.996L12 1zm0 2C9.79 3 8 4.79 8 7s1.79 4 4 4 4-1.79 4-4-1.79-4-4-4z" fill="#7B341E"/></svg> -->

<svg width="24" height="24" xmlns="http://www.w3.org/2000/svg">

 <g>
  <title>Layer 1</title>
  <path id="svg_1" d="m0,0l24,0l0,24l-24,0l0,-24z" fill="none"/>
  <path id="svg_3" d="m1.65098,4.50826l0,0l0,-0.00221l0,0.00221zm0.00084,-0.00221l4.84743,6.38216l-4.84827,6.37995l1.7824,2.34702l6.63068,-8.72807l-6.63068,-8.72807l-1.78156,2.34702zm8.58947,14.94993l12.11144,0l0,-3.31545l-12.11144,0l0,3.31545zm3.64124,-6.90949l8.4702,0l0,-3.31545l-8.4702,0l0,3.31545zm-3.64124,-10.22605l0,3.31766l12.11144,0l0,-3.31766l-12.11144,0z" fill="#3182ce"/>
 </g>
</svg>