<!-- <svg id="88ce59e9-c4b8-4d1d-9d7a-ce0190159aa8" data-name="Layer 1" xmlns="http://www.w3.org/2000/svg" xmlns:xlink="http://www.w3.org/1999/xlink" width="781.43" height="756.44" viewBox="0 0 781.43 756.44"><defs><linearGradient id="b3f40125-0363-42ff-a31c-61eb5d655202" x1="116.72" y1="237.98" x2="116.72" y2="6.21" gradientUnits="userSpaceOnUse"><stop offset="0" stop-color="gray" stop-opacity="0.25"/><stop offset="0.54" stop-color="gray" stop-opacity="0.12"/><stop offset="1" stop-color="gray" stop-opacity="0.1"/></linearGradient><linearGradient id="27ca4b3e-9552-41ad-8ba5-de2574048d20" x1="385.08" y1="490.21" x2="385.08" y2="258.44" xlink:href="#b3f40125-0363-42ff-a31c-61eb5d655202"/><linearGradient id="98d2c4cc-353c-49f3-ae94-49dceb95b558" x1="384.97" y1="232.29" x2="384.97" y2="0.51" xlink:href="#b3f40125-0363-42ff-a31c-61eb5d655202"/><linearGradient id="1b187342-85ad-4174-acd7-e912b9a9009d" x1="661.23" y1="231.77" x2="661.23" y2="0" xlink:href="#b3f40125-0363-42ff-a31c-61eb5d655202"/><linearGradient id="5629c76b-b43c-4c6e-ad7d-c063ce4611c3" x1="115.89" y1="482.62" x2="115.89" y2="250.85" xlink:href="#b3f40125-0363-42ff-a31c-61eb5d655202"/><linearGradient id="94554b54-cbd9-41c5-8f29-6b4786d89c61" x1="665.55" y1="495.47" x2="665.55" y2="263.7" xlink:href="#b3f40125-0363-42ff-a31c-61eb5d655202"/><linearGradient id="897c833c-fa4a-4dad-90f9-1cb0d950ec3f" x1="116.72" y1="743.15" x2="116.72" y2="511.38" xlink:href="#b3f40125-0363-42ff-a31c-61eb5d655202"/><linearGradient id="b88de7bb-a3e6-477b-a3c4-5c16e389ed83" x1="392.03" y1="756.44" x2="392.03" y2="524.67" xlink:href="#b3f40125-0363-42ff-a31c-61eb5d655202"/></defs><title>team</title><g opacity="0.5"><circle cx="116.72" cy="122.09" r="115.89" fill="url(#b3f40125-0363-42ff-a31c-61eb5d655202)"/></g><circle cx="116.72" cy="121.46" r="113.44" fill="#f5f5f5"/><path d="M326.32,307a112.91,112.91,0,0,0,62.36-18.66c-4.18-22.84-20.09-24.15-20.09-24.15H280.88s-15,1.23-19.7,22.25A112.92,112.92,0,0,0,326.32,307Z" transform="translate(-209.28 -71.78)" fill="#6415ff"/><circle cx="115.85" cy="118.96" r="50.29" fill="#333"/><path d="M98.18,164.57h35.09a0,0,0,0,1,0,0v28.07a17.54,17.54,0,0,1-17.54,17.54h0a17.54,17.54,0,0,1-17.54-17.54V164.57A0,0,0,0,1,98.18,164.57Z" opacity="0.1"/><path d="M101.53,163.27h28.39a3.35,3.35,0,0,1,3.35,3.35v24.72a17.54,17.54,0,0,1-17.54,17.54h0a17.54,17.54,0,0,1-17.54-17.54V166.62A3.35,3.35,0,0,1,101.53,163.27Z" fill="#be7c5e"/><path d="M307.53,249.6a50.5,50.5,0,0,0,35.09.1v-4.31H307.53Z" transform="translate(-209.28 -71.78)" opacity="0.1"/><circle cx="115.85" cy="129.88" r="50.29" fill="#be7c5e"/><path d="M294.66,180.92c.59-2.17,1.33-4.56,3.28-5.69,1.54-.9,3.45-.76,5.23-.67,13.9.76,27.68-2.41,41.2-5.72,7.73-1.89,16-4.19,21-10.42s-1.52-25.81-9.13-28.12c-5-1.53-10.8,1.32-15.54-.92-2.11-1-3.66-2.87-5.48-4.33-3.73-3-8.52-4.21-13.16-5.35-5.42-1.34-11.28-2.65-16.43-.5-4,1.66-6.92,5.17-10.71,7.25-7.21,4-16,2.14-24.26,2.12-2.79,0-6.12.56-7.23,3.12-.75,1.74-.15,3.72-.07,5.61.24,6-4.71,10.67-8.86,15s-8.07,10.51-5.45,15.89c1,2.05,2.83,3.6,3.87,5.63,1.79,3.52.89,7.77,1.54,11.66a29.34,29.34,0,0,0,3.27,8.4c3.08,6,18.55,38.3,25.66,30.09,3.44-4,4-15.56,5.39-20.76Q291.66,192,294.66,180.92Z" transform="translate(-209.28 -71.78)" fill="#333"/><ellipse cx="80.07" cy="128.05" rx="4.68" ry="8.77" fill="#be7c5e"/><g opacity="0.5"><circle cx="385.08" cy="374.32" r="115.89" fill="url(#27ca4b3e-9552-41ad-8ba5-de2574048d20)"/></g><circle cx="385.3" cy="373.58" r="113.44" fill="#f5f5f5"/><path d="M594.68,559.25A112.91,112.91,0,0,0,657,540.59c-4.18-22.84-20.09-24.15-20.09-24.15H549.23s-15,1.23-19.7,22.25A112.92,112.92,0,0,0,594.68,559.25Z" transform="translate(-209.28 -71.78)" fill="#6415ff"/><circle cx="384.2" cy="371.19" r="54.76" fill="#f55f44"/><path d="M366.53,416.8h35.09a0,0,0,0,1,0,0v28.07a17.54,17.54,0,0,1-17.54,17.54h0a17.54,17.54,0,0,1-17.54-17.54V416.8A0,0,0,0,1,366.53,416.8Z" opacity="0.1"/><path d="M369.88,415.5h28.39a3.35,3.35,0,0,1,3.35,3.35v24.72a17.54,17.54,0,0,1-17.54,17.54h0a17.54,17.54,0,0,1-17.54-17.54V418.85a3.35,3.35,0,0,1,3.35-3.35Z" fill="#fda57d"/><path d="M575.88,501.83a50.5,50.5,0,0,0,35.09.1v-4.31H575.88Z" transform="translate(-209.28 -71.78)" opacity="0.1"/><circle cx="384.2" cy="382.11" r="50.29" fill="#fda57d"/><circle cx="384.13" cy="315.49" r="20.24" fill="#f55f44"/><circle cx="384.13" cy="295.56" r="13.29" fill="#f55f44"/><path d="M584.63,398.37a20.24,20.24,0,0,1-10.55-25.88c-.14.28-.28.57-.41.86a20.24,20.24,0,1,0,36.94,16.57c.13-.29.25-.58.37-.88A20.24,20.24,0,0,1,584.63,398.37Z" transform="translate(-209.28 -71.78)" fill="#f55f44"/><path d="M557.67,408.15s21.19,43,81,18l-13.92-21.83-24.67-8.86Z" transform="translate(-209.28 -71.78)" opacity="0.1"/><path d="M557.67,407.51s21.19,43,81,18l-13.92-21.83-24.67-8.86Z" transform="translate(-209.28 -71.78)" fill="#f55f44"/><path d="M574,391.85a249.85,249.85,0,0,1,39.18,0S584.24,394.54,574,391.85Z" transform="translate(-209.28 -71.78)" fill="#333"/><path d="M596.45,353.24a13.32,13.32,0,0,0-3,.23h.77a13.28,13.28,0,0,1,2,26.33,13.28,13.28,0,0,0,.24-26.56Z" transform="translate(-209.28 -71.78)" fill="#f55f44"/><ellipse cx="333.9" cy="382.06" rx="4.68" ry="8.77" fill="#fda57d"/><ellipse cx="434.49" cy="382.06" rx="4.68" ry="8.77" fill="#fda57d"/><polygon points="345.22 337 355.03 331.94 357.24 340.05 351.23 344.14 345.22 337" fill="#f55f44"/><g opacity="0.5"><circle cx="384.97" cy="116.4" r="115.89" fill="url(#98d2c4cc-353c-49f3-ae94-49dceb95b558)"/></g><circle cx="384.97" cy="115.77" r="113.44" fill="#f5f5f5"/><path d="M550,188.56s-12.86,63.36-19.88,59.85c0,0,67.7,58.48,127.48,0,0,0-10.53-44.65-25.73-59.85Z" transform="translate(-209.28 -71.78)" fill="#333"/><path d="M594.57,301.33a112.91,112.91,0,0,0,62.36-18.66c-4.18-22.84-20.09-24.15-20.09-24.15H549.12s-15,1.23-19.7,22.25A112.92,112.92,0,0,0,594.57,301.33Z" transform="translate(-209.28 -71.78)" fill="#6415ff"/><circle cx="384.09" cy="113.27" r="50.29" fill="#333"/><path d="M366.42,158.88h35.09a0,0,0,0,1,0,0v28.07A17.54,17.54,0,0,1,384,204.49h0a17.54,17.54,0,0,1-17.54-17.54V158.88A0,0,0,0,1,366.42,158.88Z" opacity="0.1"/><path d="M369.77,157.58h28.39a3.35,3.35,0,0,1,3.35,3.35v24.72A17.54,17.54,0,0,1,384,203.19h0a17.54,17.54,0,0,1-17.54-17.54V160.92A3.35,3.35,0,0,1,369.77,157.58Z" fill="#be7c5e"/><path d="M575.77,243.91a50.5,50.5,0,0,0,35.09.1v-4.31H575.77Z" transform="translate(-209.28 -71.78)" opacity="0.1"/><circle cx="384.09" cy="124.18" r="50.29" fill="#be7c5e"/><path d="M545.3,176.86h95.9s-8.19-38.72-44.44-36.25S545.3,176.86,545.3,176.86Z" transform="translate(-209.28 -71.78)" fill="#333"/><ellipse cx="334.84" cy="122.04" rx="4.68" ry="8.77" fill="#be7c5e"/><ellipse cx="433.08" cy="122.04" rx="4.68" ry="8.77" fill="#be7c5e"/><path d="M545.3,178.16h95.9s-8.19-38.72-44.44-36.25S545.3,178.16,545.3,178.16Z" transform="translate(-209.28 -71.78)" opacity="0.1"/><g opacity="0.5"><circle cx="661.23" cy="115.89" r="115.89" fill="url(#1b187342-85ad-4174-acd7-e912b9a9009d)"/></g><circle cx="661.45" cy="115.14" r="113.44" fill="#f5f5f5"/><path d="M870.83,300.82a112.91,112.91,0,0,0,62.36-18.66C929,259.31,913.1,258,913.1,258H825.39s-15,1.23-19.7,22.25A112.92,112.92,0,0,0,870.83,300.82Z" transform="translate(-209.28 -71.78)" fill="#6415ff"/><circle cx="660.36" cy="112.75" r="54.76" fill="#72351c"/><path d="M642.68,158.36h35.09a0,0,0,0,1,0,0v28.07A17.54,17.54,0,0,1,660.23,204h0a17.54,17.54,0,0,1-17.54-17.54V158.36A0,0,0,0,1,642.68,158.36Z" opacity="0.1"/><path d="M646,157.06h28.39a3.35,3.35,0,0,1,3.35,3.35v24.72a17.54,17.54,0,0,1-17.54,17.54h0a17.54,17.54,0,0,1-17.54-17.54V160.41a3.35,3.35,0,0,1,3.35-3.35Z" fill="#fda57d"/><path d="M852,243.39a50.5,50.5,0,0,0,35.09.1v-4.31H852Z" transform="translate(-209.28 -71.78)" opacity="0.1"/><circle cx="660.36" cy="123.67" r="50.29" fill="#fda57d"/><path d="M833.82,149.71s21.19,43,81,18l-13.92-21.83-24.67-8.86Z" transform="translate(-209.28 -71.78)" opacity="0.1"/><path d="M833.82,149.08s21.19,43,81,18l-13.92-21.83-24.67-8.86Z" transform="translate(-209.28 -71.78)" fill="#72351c"/><path d="M833.63,146.17a29.05,29.05,0,0,1,7.2-11.71c9.89-9.78,26.11-11.84,34.43-23a6.51,6.51,0,0,1-3,9.18c8-.05,17.21-.75,21.71-7.31a14.91,14.91,0,0,1-2.51,15.74c7.06.32,14.6,5.11,15.06,12.17.3,4.7-2.64,9.15-6.51,11.85S891.48,157,886.88,158C873.46,161,824.87,173.41,833.63,146.17Z" transform="translate(-209.28 -71.78)" fill="#72351c"/><path d="M919.93,195.89h-1.33L892.66,219c-25-11.7-43.34,0-43.34,0l-27.2-22.14-2.74.34a50.29,50.29,0,0,0,100.56-1.29Zm-50.36,31.95c-9.78,0-17.71-2-17.71-4.43s7.93-4.43,17.71-4.43,17.71,2,17.71,4.43S879.35,227.84,869.56,227.84Z" transform="translate(-209.28 -71.78)" fill="#72351c"/><ellipse cx="610.05" cy="123.62" rx="4.68" ry="8.77" fill="#fda57d"/><ellipse cx="710.64" cy="123.62" rx="4.68" ry="8.77" fill="#fda57d"/><g opacity="0.5"><circle cx="115.89" cy="366.73" r="115.89" fill="url(#5629c76b-b43c-4c6e-ad7d-c063ce4611c3)"/></g><circle cx="116.11" cy="365.99" r="113.44" fill="#f5f5f5"/><path d="M325.49,551.66A112.91,112.91,0,0,0,387.84,533c-4.18-22.84-20.09-24.15-20.09-24.15H280s-15,1.23-19.7,22.25A112.92,112.92,0,0,0,325.49,551.66Z" transform="translate(-209.28 -71.78)" fill="#6415ff"/><circle cx="115.01" cy="363.6" r="54.76" fill="#333"/><path d="M97.34,409.21h35.09a0,0,0,0,1,0,0v28.07a17.54,17.54,0,0,1-17.54,17.54h0a17.54,17.54,0,0,1-17.54-17.54V409.21A0,0,0,0,1,97.34,409.21Z" opacity="0.1"/><path d="M100.69,407.91h28.39a3.35,3.35,0,0,1,3.35,3.35V436a17.54,17.54,0,0,1-17.54,17.54h0A17.54,17.54,0,0,1,97.34,436V411.25a3.35,3.35,0,0,1,3.35-3.35Z" fill="#fdb797"/><path d="M306.69,494.24a50.5,50.5,0,0,0,35.09.1V490H306.69Z" transform="translate(-209.28 -71.78)" opacity="0.1"/><circle cx="115.01" cy="374.52" r="50.29" fill="#fdb797"/><path d="M288.48,400.55s21.19,43,81,18l-13.92-21.83-24.67-8.86Z" transform="translate(-209.28 -71.78)" opacity="0.1"/><path d="M288.48,399.92s21.19,43,81,18l-13.92-21.83-24.67-8.86Z" transform="translate(-209.28 -71.78)" fill="#333"/><path d="M288.29,397a29.05,29.05,0,0,1,7.2-11.71c9.89-9.78,26.11-11.84,34.43-23a6.51,6.51,0,0,1-3,9.18c8-.05,17.21-.75,21.71-7.31a14.91,14.91,0,0,1-2.51,15.74c7.06.32,14.6,5.11,15.06,12.17.3,4.7-2.64,9.15-6.51,11.85s-8.54,3.93-13.14,4.95C328.11,411.85,279.53,424.26,288.29,397Z" transform="translate(-209.28 -71.78)" fill="#333"/><ellipse cx="64.7" cy="374.47" rx="4.68" ry="8.77" fill="#fdb797"/><ellipse cx="165.29" cy="374.47" rx="4.68" ry="8.77" fill="#fdb797"/><g opacity="0.5"><circle cx="665.55" cy="379.58" r="115.89" fill="url(#94554b54-cbd9-41c5-8f29-6b4786d89c61)"/></g><circle cx="665.55" cy="378.95" r="113.44" fill="#f5f5f5"/><path d="M875.15,564.51a112.91,112.91,0,0,0,62.36-18.66c-4.18-22.84-20.09-24.15-20.09-24.15H829.7s-15,1.23-19.7,22.25A112.92,112.92,0,0,0,875.15,564.51Z" transform="translate(-209.28 -71.78)" fill="#6415ff"/><path d="M647,422.06h35.09a0,0,0,0,1,0,0v28.07a17.54,17.54,0,0,1-17.54,17.54h0A17.54,17.54,0,0,1,647,450.13V422.06A0,0,0,0,1,647,422.06Z" opacity="0.1"/><path d="M650.35,420.76h28.39a3.35,3.35,0,0,1,3.35,3.35v24.72a17.54,17.54,0,0,1-17.54,17.54h0A17.54,17.54,0,0,1,647,448.83V424.11a3.35,3.35,0,0,1,3.35-3.35Z" fill="#fdb797"/><path d="M856.35,507.09a50.5,50.5,0,0,0,35.09.1v-4.31H856.35Z" transform="translate(-209.28 -71.78)" opacity="0.1"/><circle cx="664.67" cy="387.37" r="50.29" fill="#fdb797"/><ellipse cx="615.42" cy="385.22" rx="4.68" ry="8.77" fill="#fdb797"/><ellipse cx="713.66" cy="385.22" rx="4.68" ry="8.77" fill="#fdb797"/><rect x="634.03" y="387.61" width="21.51" height="10.76" rx="4.35" ry="4.35" fill="none" stroke="#333" stroke-miterlimit="10" stroke-width="2"/><rect x="883.1" y="459.39" width="21.51" height="10.76" rx="4.35" ry="4.35" transform="translate(1578.42 857.75) rotate(180)" fill="none" stroke="#333" stroke-miterlimit="10" stroke-width="2"/><path d="M864,460.43s6.82-3.7,19.5,0" transform="translate(-209.28 -71.78)" fill="none" stroke="#333" stroke-miterlimit="10" stroke-width="2"/><path d="M908.72,422.7l12.34,28.67S936.15,432.35,908.72,422.7Z" transform="translate(-209.28 -71.78)" fill="#858585"/><line x1="695.32" y1="392.99" x2="713.74" y2="376.54" fill="none" stroke="#333" stroke-linecap="round" stroke-linejoin="round" stroke-width="2"/><path d="M839.2,422.7l-12.34,28.67S811.77,432.35,839.2,422.7Z" transform="translate(-209.28 -71.78)" fill="#858585"/><line x1="634.03" y1="392.99" x2="615.36" y2="376.54" fill="none" stroke="#333" stroke-linecap="round" stroke-linejoin="round" stroke-width="2"/><g opacity="0.5"><circle cx="116.72" cy="627.26" r="115.89" fill="url(#897c833c-fa4a-4dad-90f9-1cb0d950ec3f)"/></g><circle cx="116.72" cy="626.63" r="113.44" fill="#f5f5f5"/><path d="M388.75,708.61c0,41.78-27.26,88.29-60.89,88.29S267,750.39,267,708.61s27.26-63,60.89-63S388.75,666.84,388.75,708.61Z" transform="translate(-209.28 -71.78)" fill="#fdd835"/><path d="M326.32,812.2a112.91,112.91,0,0,0,62.36-18.66c-4.18-22.84-20.09-24.15-20.09-24.15H280.88s-15,1.23-19.7,22.25A112.92,112.92,0,0,0,326.32,812.2Z" transform="translate(-209.28 -71.78)" fill="#6415ff"/><path d="M98.18,669.74h35.09a0,0,0,0,1,0,0v28.07a17.54,17.54,0,0,1-17.54,17.54h0a17.54,17.54,0,0,1-17.54-17.54V669.74A0,0,0,0,1,98.18,669.74Z" opacity="0.1"/><path d="M101.53,668.44h28.39a3.35,3.35,0,0,1,3.35,3.35v24.72a17.54,17.54,0,0,1-17.54,17.54h0a17.54,17.54,0,0,1-17.54-17.54V671.79A3.35,3.35,0,0,1,101.53,668.44Z" fill="#fdb797"/><path d="M307.53,754.77a50.5,50.5,0,0,0,35.09.1v-4.31H307.53Z" transform="translate(-209.28 -71.78)" opacity="0.1"/><circle cx="115.85" cy="635.05" r="50.29" fill="#fdb797"/><ellipse cx="66.6" cy="632.9" rx="4.68" ry="8.77" fill="#fdb797"/><ellipse cx="164.84" cy="632.9" rx="4.68" ry="8.77" fill="#fdb797"/><path d="M280.57,679.55S309,718.46,374.2,705.17c0,0,7.28-8.86-10.44-36.06S296.7,646.34,280.57,679.55Z" transform="translate(-209.28 -71.78)" opacity="0.1"/><path d="M280.57,678.92S309,717.83,374.2,704.54c0,0,7.28-8.86-10.44-36.06S296.7,645.71,280.57,678.92Z" transform="translate(-209.28 -71.78)" fill="#fdd835"/><g opacity="0.5"><circle cx="392.03" cy="640.55" r="115.89" fill="url(#b88de7bb-a3e6-477b-a3c4-5c16e389ed83)"/></g><circle cx="392.26" cy="639.81" r="113.44" fill="#f5f5f5"/><path d="M663.95,722.77c0,37.74-27.11,56.31-62.32,56.31s-65.16-18.57-65.16-56.31,28.54-68.33,63.74-68.33S663.95,685,663.95,722.77Z" transform="translate(-209.28 -71.78)" fill="#333"/><path d="M601.63,825.48A112.91,112.91,0,0,0,664,806.82c-4.18-22.84-20.09-24.15-20.09-24.15H556.19s-15,1.23-19.7,22.25A112.92,112.92,0,0,0,601.63,825.48Z" transform="translate(-209.28 -71.78)" fill="#6415ff"/><path d="M373.49,683h35.09a0,0,0,0,1,0,0v28.07A17.54,17.54,0,0,1,391,728.64h0a17.54,17.54,0,0,1-17.54-17.54V683A0,0,0,0,1,373.49,683Z" opacity="0.1"/><path d="M376.83,681.73h28.39a3.35,3.35,0,0,1,3.35,3.35V709.8A17.54,17.54,0,0,1,391,727.34h0a17.54,17.54,0,0,1-17.54-17.54V685.07a3.35,3.35,0,0,1,3.35-3.35Z" fill="#fda57d"/><path d="M582.84,768.06a50.5,50.5,0,0,0,35.09.1v-4.31H582.84Z" transform="translate(-209.28 -71.78)" opacity="0.1"/><circle cx="391.16" cy="648.33" r="50.29" fill="#fda57d"/><path d="M542.48,723.4s31.32-3.8,55-34.16c0,0,31.32,34.48,53.14,30.68,0,0,12.65-13.29,0-26.57s-22.46-30.05-39.22-27.84-37.33,3.16-46.18,11.07S542.48,723.4,542.48,723.4Z" transform="translate(-209.28 -71.78)" opacity="0.1"/><path d="M542.48,722.77s31.32-3.8,55-34.16c0,0,31.32,34.48,53.14,30.68,0,0,12.65-13.29,0-26.57s-22.46-30.05-39.22-27.84S574.11,668,565.26,676,542.48,722.77,542.48,722.77Z" transform="translate(-209.28 -71.78)" fill="#333"/><ellipse cx="340.85" cy="648.29" rx="4.68" ry="8.77" fill="#fda57d"/><ellipse cx="441.44" cy="648.29" rx="4.68" ry="8.77" fill="#fda57d"/></svg> -->





<!-- <svg width="1000" height="813.14" xmlns="http://www.w3.org/2000/svg" xmlns:xlink="http://www.w3.org/1999/xlink" data-name="Layer 1">
 <defs>
  <linearGradient y2="0.50002" x2="0.99999" y1="0.50002" x1="0" id="bc196d5e-e6db-431f-8e4d-c46ceaa79599">
   <stop stop-opacity="0.25" stop-color="gray" offset="0"/>
   <stop stop-opacity="0.12" stop-color="gray" offset="0.54"/>
   <stop stop-opacity="0.1" stop-color="gray" offset="1"/>
  </linearGradient>
  <linearGradient xlink:href="#bc196d5e-e6db-431f-8e4d-c46ceaa79599" y2="228.29" x2="344.66" y1="228.29" x1="336.95" id="f896ccf3-93a4-4918-87f1-59b3ca8c3ed3"/>
  <linearGradient xlink:href="#bc196d5e-e6db-431f-8e4d-c46ceaa79599" y2="588.17" x2="460.73" y1="588.17" x1="458.41" id="c21cd8c1-ce7b-4f09-a7b6-09df42e9ccdb"/>
 </defs>
 <title>winter designer</title>
 <g>
  <title>Layer 1</title>
  <path id="svg_1" opacity="0.1" fill="#7b341e" d="m584.48,132.75c-71.37,12.06 -142.64,6.89 -211.2,-0.63s-136.95,-17.34 -208.35,-14.38c-45.93,1.9 -97.08,11 -129.15,37.45c-30.87,25.44 -35.68,59.77 -35.74,90.76c-0.08,23.31 1.94,47.43 18.46,66c11.48,12.88 29.15,22.11 42.46,34c46.31,41.3 32.23,106.33 1.84,161.62c-14.26,25.94 -31.7,51.45 -41.41,78s-11,55 6.38,76.65c17.18,21.35 50.49,33.49 85.27,39.76c70.54,12.74 149.13,4.83 225.17,-5.89c168.28,-23.73 334.83,-60.85 501.02,-97.88c61.49,-13.71 123.25,-27.48 182.49,-47.24c32.9,-11 66.4,-24.69 87.65,-46c27,-27 27.68,-63.93 1.66,-86c-43.66,-37 -142.48,-28.79 -176.25,-71.09c-18.58,-23.29 -10.49,-54.92 4.3,-82.86c31.71,-59.92 93,-119.12 85.06,-178.86c-5.48,-41 -47.29,-74.93 -103.33,-83.77c-58.74,-9.26 -134.18,8.3 -168,49.56c-34.77,42.51 -105.31,70.16 -168.33,80.8z"/>
  <rect id="svg_2" fill="#565661" height="195.79" width="415.7" y="105.03" x="87.07"/>
  <rect id="svg_3" fill="#dfe6f5" height="166.99" width="398" y="119.43" x="96.65"/>
  <path id="svg_4" fill="#7b341e" d="0"/>
  <path id="svg_5" fill="#fff" d="m152.26,192.91c1.38,-1.43 2.56,-3.09 4.21,-4.19a19.66,19.66 0 0 1 4.66,-2c12,-4.23 21.37,-13.47 30.95,-21.83c8.44,-7.37 17.31,-14.23 26.17,-21.08l3.37,2.46l-8.09,3.3c-0.78,0.32 -1.68,0.8 -1.72,1.64a2.23,2.23 0 0 0 0.64,1.42c2.08,2.68 4.42,5.54 7.73,6.29c1.58,0.36 3.49,0.31 4.47,1.6a6.17,6.17 0 0 1 0.8,2.08c1.28,4.36 5.23,7.35 9.11,9.72a91.46,91.46 0 0 0 24.66,10.42a58.1,58.1 0 0 1 -19.18,-3.88a27.3,27.3 0 0 1 -5.23,-2.57c-3.49,-2.28 -6.11,-5.67 -9.5,-8.09s-8.23,-3.71 -11.64,-1.32c-0.93,0.66 -1.83,1.6 -3,1.54s-2,-1.18 -3,-1.87c-2.55,-1.82 -6.11,-0.61 -8.84,0.93a45.76,45.76 0 0 0 -18.72,20.19a52.19,52.19 0 0 0 34.2,-9.89a44.1,44.1 0 0 0 24.27,16.91c-1.44,1.75 -3.81,2.32 -5.92,3.14a21.7,21.7 0 0 0 -12.45,12.92a20.7,20.7 0 0 1 -3.46,-7.39a98.35,98.35 0 0 0 -9.4,6a20.36,20.36 0 0 0 6.86,-7.39a22.94,22.94 0 0 0 -15.46,1.66c-3.5,1.72 -6.74,4.4 -10.64,4.61a9,9 0 0 0 -6.29,-9.69c-2.75,-0.77 -6.3,-0.45 -7.78,-2.9a20.41,20.41 0 0 1 -0.89,-2.16c-1.14,-2.55 -4.16,-3.83 -6.95,-3.75s-5.42,1.22 -8,2.35c-3.68,1.62 -7.33,3.4 -11.07,4.86c1.69,-1.44 3.58,-2.48 5.13,-4.04z"/>
  <path id="svg_6" fill="#fff" d="m216.55,227.98a27.22,27.22 0 0 0 14.54,-2.31c2.48,-1.15 4.85,-2.69 7.54,-3.15s5.94,0.61 6.83,3.2c3.23,-2.32 3.82,-6.93 6.41,-9.95c3.81,-4.45 11.2,-4.17 16,-0.8s7.48,9 9.48,14.46c1.51,4.16 2.86,8.61 6,11.7s8.91,4.09 11.84,0.77a17.41,17.41 0 0 1 -1.58,-18.33c0.68,-1.29 1.55,-2.59 1.5,-4c-0.11,-3.14 -4,-4.38 -6.5,-6.3c-5.41,-4.14 -4.7,-12.78 -9.08,-18c-2.32,-2.77 -6.25,-5.21 -5.58,-8.76a98.4,98.4 0 0 1 37.09,15.78a30.42,30.42 0 0 0 5.82,3.53c2.76,1.11 5.81,1.24 8.62,2.2c9.35,3.18 14.76,14.88 24.6,15.69c4.9,0.4 9.49,-2.12 14.07,-3.93c19.47,-7.69 41.44,-2.84 61.57,2.91c-7,-3.85 -16.89,-3.28 -21.33,-9.92c-1.52,-2.27 -2.19,-5.19 -4.3,-6.93c-4.14,-3.42 -10.19,-0.13 -15.54,0.38a14.65,14.65 0 0 1 -13.2,-6.19c-1.44,-2.11 -2.35,-4.63 -4.24,-6.33c-2.77,-2.48 -6.86,-2.58 -10.58,-2.54l-17.45,0.16c-2.93,0 -6.23,-0.11 -8.19,-2.29a24.12,24.12 0 0 0 -2.12,-2.69c-1.15,-1 -2.75,-1.13 -4.24,-1.34a40.63,40.63 0 0 1 -13.88,-4.59a4.12,4.12 0 0 1 -2,-1.8c-1.12,-2.65 2.94,-4.12 5.21,-5.89c3.7,-2.9 2.88,-8.61 1.7,-13.15a16.82,16.82 0 0 0 8.15,-4.34c-4.2,-3.87 -8.81,-9.15 -7,-14.56c0.4,-1.19 0.62,-3.12 -0.63,-3.09a18.88,18.88 0 0 1 -8,8.62a7.27,7.27 0 0 0 -2.88,2.13c-1.27,2 0.05,5.05 -1.53,6.83a4.77,4.77 0 0 1 -2.05,1.2c-5.27,1.89 -11.76,2.28 -14.93,6.9a23.46,23.46 0 0 0 -2.39,6a33.12,33.12 0 0 1 -23.51,21.31c-1.82,0.42 -3.81,0.75 -5.09,2.11c-1,1 -1.34,2.43 -2.17,3.55c-1.66,2.25 -4.67,2.86 -7.28,3.86c-7.47,2.85 -12.06,9.37 -16.23,15.82c-1.76,2.72 -3.05,3.54 -5.94,4.81a14.8,14.8 0 0 0 -4.77,2.94c-0.27,0.3 -2.99,4.29 -2.76,4.32z"/>
  <path id="svg_7" fill="#fff" d="m348.58,172.27a49.26,49.26 0 0 1 -10.4,4a20.85,20.85 0 0 1 4.9,2.11a9.31,9.31 0 0 1 -3.44,5.19c4,0.13 7.79,1.6 11.64,2.65c6.39,1.73 13,2.3 19.62,2.87l-9,-6.57c-1.32,-1 -2.74,-2.06 -3.07,-3.66a6.47,6.47 0 0 1 1.08,-4.19c2.28,-4.31 5.05,-8.25 7.67,-12.33c-3.22,1.11 -7.45,0.19 -10.35,1.54c-1.81,0.84 -2.13,2.62 -3.21,4.11a15.09,15.09 0 0 1 -5.44,4.28z"/>
  <path id="svg_8" fill="#fff" d="m403.04,182.33a20.49,20.49 0 0 1 -4,6.26a11,11 0 0 0 5.75,2.75a27.39,27.39 0 0 1 3.27,0.47a11.92,11.92 0 0 1 3.47,1.87c7,4.85 14.53,10.44 16.48,18.73a5.87,5.87 0 0 1 7.66,1.73c0.86,1.31 1.3,3.09 2.73,3.73s3,-0.2 4.13,-1.17s2.25,-2.16 3.72,-2.5a7.14,7.14 0 0 1 2.76,0.09l13.31,2.15a17.61,17.61 0 0 0 -14.26,-5.13c-3.22,0.35 -6.58,1.57 -9.57,0.35s-4.53,-4.44 -6.89,-6.62c-3,-2.78 -7.33,-3.84 -10.32,-6.65c-2.49,-2.36 -3.81,-5.7 -6.07,-8.28c-2.45,-2.81 -5.94,-4.63 -8.09,-7.67c-0.87,-1.23 -1.56,-2.68 -2.84,-3.46c-2.25,-1.36 -6.87,-1.24 -9.43,-1.48c0.61,3.01 5.31,5.38 8.19,4.83z"/>
  <path id="svg_9" fill="#fff" d="m171.79,156.57a66.89,66.89 0 0 0 6.79,0.12a1.2,1.2 0 0 0 0.63,-0.15a1.15,1.15 0 0 0 0.35,-0.71l0.81,-3.58a1.41,1.41 0 0 1 0.4,-0.84a1.4,1.4 0 0 1 1.36,0a25.16,25.16 0 0 1 6.51,3.62q-1.28,-3.87 -2.28,-7.83l6.13,-1.08c-4.65,-1.11 -7,-0.55 -10,2.74c-1.76,1.89 -8,7.88 -10.7,7.71z"/>
  <circle id="svg_10" fill="#565661" r="5.57" cy="82.92" cx="294.92"/>
  <polyline id="svg_11" stroke-miterlimit="10" stroke="#565661" fill="none" points="259.22 110.42 294.92 82.92 330.99 110.42"/>
  <path id="svg_12" fill="url(#bc196d5e-e6db-431f-8e4d-c46ceaa79599)" d="m300.63,184.19l0.44,0.28l0.92,-0.1l-1.36,-0.18z"/>
  <path id="svg_13" fill="url(#f896ccf3-93a4-4918-87f1-59b3ca8c3ed3)" d="m302.04,184.37l7.71,1a17.93,17.93 0 0 0 -7.71,-1z"/>
  <rect id="svg_14" fill="#565661" height="65.63" width="283.43" y="461.24" x="322"/>
  <rect id="svg_15" opacity="0.1" height="65.63" width="283.43" y="461.24" x="322"/>
  <polygon id="svg_16" fill="#bcbec9" points="355.91 529.03 357.9 704.24 330.64 773.06 328.53 529.03 355.91 529.03"/>
  <polygon id="svg_17" fill="#565661" points="324.99 473.84 600.94 475.5 600.94 524.38 324.99 524.38 324.99 473.84"/>
  <polygon id="svg_18" fill="#bcbec9" points="577.33 529.03 600.94 532.36 600.94 770.4 577.33 697.59 577.33 529.03"/>
  <rect id="svg_19" fill="#efeff0" height="282.6" width="132.99" y="463.87" x="609.91"/>
  <rect id="svg_20" fill="#565661" height="217.23" width="111.71" y="471.72" x="620.55"/>
  <rect id="svg_21" opacity="0.1" height="217.23" width="111.71" y="471.72" x="620.55"/>
  <rect id="svg_22" fill="#565661" height="48.21" width="111.71" y="476.17" x="620.55"/>
  <rect id="svg_23" fill="#565661" height="102.4" width="111.71" y="529.03" x="620.55"/>
  <rect id="svg_24" fill="#565661" height="102.4" width="111.71" y="637.75" x="620.55"/>
  <ellipse id="svg_25" fill="#565661" ry="9.2" rx="7.2" cy="755.67" cx="625.21"/>
  <ellipse id="svg_26" fill="#565661" ry="9.2" rx="7.2" cy="756.11" cx="725.06"/>
  <polygon id="svg_27" fill="#efeff0" points="321 773.06 330.64 773.06 327.99 466.32 313.35 466.32 321 773.06"/>
  <polygon id="svg_28" fill="#efeff0" points="600.94 463.87 600.94 770.4 609.91 770.4 609.91 466.32 600.94 463.87"/>
  <polygon id="svg_29" fill="#efeff0" points="328.46 521.38 328.46 532.36 600.94 532.36 600.94 524.38 328.46 521.38"/>
  <polygon id="svg_30" fill="#efeff0" points="346.93 443.26 692.37 443.26 742.57 459.88 742.57 469.52 311.69 466.2 311.69 456.39 346.93 443.26"/>
  <polygon id="svg_31" fill="#bcbec9" points="311.69 456.39 742.57 459.88 742.57 469.52 311.69 466.2 311.69 456.39"/>
  <path id="svg_32" fill="url(#c21cd8c1-ce7b-4f09-a7b6-09df42e9ccdb)" d="m425.72,545.71l-2,-0.3c0,-0.09 0,-0.17 0,-0.25c-0.06,-0.47 -0.13,-0.93 -0.2,-1.4c0.82,0.65 1.6,1.3 2.32,1.95l-0.12,0z"/>
  <path id="svg_33" fill="#a26565" d="m382.26,700.12c1.3,-0.3 2.62,-0.55 3.94,-0.73a47.42,47.42 0 0 1 26.62,3.92c-0.84,6.18 -1.67,12.57 0.11,18.54c1.24,4.2 3.73,8 4.26,12.38a7.3,7.3 0 0 1 5.75,5.08a11.05,11.05 0 0 1 0.57,3.56a19,19 0 0 1 -0.56,4.44a4.48,4.48 0 0 1 -4.8,4c-7.74,0.88 -15.33,-2.17 -22.53,-5.16l-14,-5.82c-1.64,-0.68 -3.29,-1.37 -4.86,-2.21a26.63,26.63 0 0 1 -7.79,-6.37a3.55,3.55 0 0 1 -0.91,-1.65c-0.26,-1.76 1.8,-2.81 3.11,-4a6.23,6.23 0 0 0 1,-1.22c1.55,-2.34 1.7,-5.57 2.63,-8.33c2.2,-6.55 9,-10.77 11.4,-17.16c0.13,-0.35 0.25,-0.7 0.35,-1.06"/>
  <path id="svg_34" opacity="0.1" d="m423.51,742.87a19,19 0 0 1 -0.56,4.44a4.48,4.48 0 0 1 -4.8,4c-7.74,0.88 -15.33,-2.17 -22.53,-5.16l-14,-5.82c-1.64,-0.68 -3.29,-1.37 -4.86,-2.21a26.63,26.63 0 0 1 -7.79,-6.37a3.55,3.55 0 0 1 -0.91,-1.65c-0.26,-1.76 1.8,-2.81 3.11,-4a6.23,6.23 0 0 0 1,-1.22c3.86,0.83 8.65,3.26 11.6,4.2a35.22,35.22 0 0 1 8.44,3.53c3.68,2.36 6.33,6 9.45,9s7.15,5.73 11.5,5.36a19,19 0 0 0 6.54,-2.26l3.81,-1.84z"/>
  <path id="svg_35" fill="#454b69" d="m407.12,600.76a4.63,4.63 0 0 1 -1.7,5c-1.31,0.81 -3,0.7 -4.3,1.58c-1.61,1.13 -1.84,3.37 -2.12,5.31c-1,6.67 -4.31,12.72 -7.14,18.85s-5.22,12.82 -4.18,19.48c0.71,4.52 2.93,9.34 0.85,13.41c-0.51,1 -1.27,1.89 -1.85,2.86c-2.85,4.76 -1.23,10.79 -1.34,16.33a3.23,3.23 0 0 1 -0.39,1.77a4.89,4.89 0 0 1 -1.58,1.22a8.38,8.38 0 0 0 -3.41,6.43a24.57,24.57 0 0 0 0.9,7.46a4.44,4.44 0 0 0 1.23,2.6a4.6,4.6 0 0 0 2.69,0.76a59.84,59.84 0 0 1 18.26,4.44c3.79,1.58 7.47,3.56 11.5,4.32a3,3 0 0 0 2.36,-0.25a3.25,3.25 0 0 0 1,-1.73c1.55,-5.1 3.12,-10.36 2.59,-15.66c-0.23,-2.28 -0.84,-4.51 -1,-6.79c-0.7,-9 5.39,-17.12 7.32,-26c0.87,-4 0.87,-8.14 1.49,-12.18c1.68,-11.07 7.78,-21 10.13,-31.95a34.73,34.73 0 0 1 1.52,-6c1.75,-4.24 5.8,-7.68 5.89,-12.27a4.78,4.78 0 0 0 -0.76,-2.86a6.48,6.48 0 0 0 -3.57,-2a121.87,121.87 0 0 0 -16.63,-3.32a31.35,31.35 0 0 0 -7.78,-0.54a22.9,22.9 0 0 0 -9.52,3.36c-3.78,2.36 -1.3,2.93 -0.46,6.37z"/>
  <path id="svg_36" opacity="0.05" d="m407.12,600.76a4.63,4.63 0 0 1 -1.7,5c-1.31,0.81 -3,0.7 -4.3,1.58c-1.61,1.13 -1.84,3.37 -2.12,5.31c-1,6.67 -4.31,12.72 -7.14,18.85s-5.22,12.82 -4.18,19.48c0.71,4.52 2.93,9.34 0.85,13.41c-0.51,1 -1.27,1.89 -1.85,2.86c-2.85,4.76 -1.23,10.79 -1.34,16.33a3.23,3.23 0 0 1 -0.39,1.77a4.89,4.89 0 0 1 -1.58,1.22a8.38,8.38 0 0 0 -3.41,6.43a24.57,24.57 0 0 0 0.9,7.46a4.44,4.44 0 0 0 1.23,2.6a4.6,4.6 0 0 0 2.69,0.76a59.84,59.84 0 0 1 18.26,4.44c3.79,1.58 7.47,3.56 11.5,4.32a3,3 0 0 0 2.36,-0.25a3.25,3.25 0 0 0 1,-1.73c1.55,-5.1 3.12,-10.36 2.59,-15.66c-0.23,-2.28 -0.84,-4.51 -1,-6.79c-0.7,-9 5.39,-17.12 7.32,-26c0.87,-4 0.87,-8.14 1.49,-12.18c1.68,-11.07 7.78,-21 10.13,-31.95a34.73,34.73 0 0 1 1.52,-6c1.75,-4.24 5.8,-7.68 5.89,-12.27a4.78,4.78 0 0 0 -0.76,-2.86a6.48,6.48 0 0 0 -3.57,-2a121.87,121.87 0 0 0 -16.63,-3.32a31.35,31.35 0 0 0 -7.78,-0.54a22.9,22.9 0 0 0 -9.52,3.36c-3.78,2.36 -1.3,2.93 -0.46,6.37z"/>
  <polygon id="svg_37" fill="#565661" points="387.55 751.47 379.02 751.47 373.44 636.83 373.05 630.31 380.3 627.76 380.79 634.69 387.55 751.47"/>
  <polygon id="svg_38" opacity="0.1" points="380.79 634.69 373.44 636.83 373.05 630.31 380.3 627.76 380.79 634.69"/>
  <polygon id="svg_39" fill="#565661" points="494.58 775.72 480.51 777.42 415.69 630.31 398.21 629.03 367.51 637.99 361.54 813.14 347.47 813.14 353.01 631.59 319.32 632.45 259.2 782.11 246.41 782.11 309.64 607.2 312.08 600.46 406.31 597.23 429.8 610.4 430.1 611.16 494.58 775.72"/>
  <path id="svg_40" opacity="0.1" d="m430.1,611.16c-20.25,6.1 -41.27,12.76 -41.27,12.76s-19.17,6.69 -27.29,0a12.27,12.27 0 0 0 -3.39,-1.87a16.7,16.7 0 0 0 3.39,1.87l-51.9,-16.73l2.43,-6.73l94.24,-3.23l23.49,13.17l0.3,0.76z"/>
  <path id="svg_41" fill="#fff" d="m334.25,582.13l38.37,-8.56s91.68,17.06 98.5,23.88c0,0 -73.34,14.92 -81.44,20s-56.29,10.73 -55.43,-35.32z"/>
  <path id="svg_42" fill="#7b341e" d="m317.75,486.24c-3,9.51 -11.19,18.08 -21.16,18.49a3.69,3.69 0 0 1 -2.11,-0.38c-1.25,-0.78 -1.28,-2.61 -0.77,-4s1.4,-2.64 1.54,-4.1a2.68,2.68 0 0 0 -0.06,-0.89c-0.26,-1.19 -1.23,-2.25 -2.37,-2a4,4 0 0 0 0.85,-5.31a12,12 0 0 1 -1.22,-1.64c-0.83,-1.7 0.46,-3.61 1,-5.43c1.11,-4 -1.71,-8 -1.94,-12.17c-0.2,-3.73 1.69,-7.24 2.16,-10.94c0.75,-6 -2.23,-11.75 -2.58,-17.74c-0.24,-4.18 0.79,-8.32 1.94,-12.35c1,-3.6 2.13,-7.24 2.2,-11c0,-2.73 -0.47,-5.43 -0.6,-8.15a14.19,14.19 0 0 1 1.31,-7.24a5.79,5.79 0 0 1 3.29,-2.81c3.28,-1.1 5.43,0.61 5.91,3.72c0.8,5.29 0.34,10.69 1.39,16a75,75 0 0 0 4.39,14.49c1.77,4.22 3.92,8.3 5.28,12.67a69.8,69.8 0 0 1 2.19,11c1.34,9.99 2.39,20.27 -0.64,29.78z"/>
  <path id="svg_43" fill="#a26565" d="m545.51,728.28a15.51,15.51 0 0 1 -10.93,6.44c-4.34,0.54 -8.85,-0.55 -13.06,0.64a4,4 0 0 0 -3,2.31a24.54,24.54 0 0 0 -0.19,2.45c-0.49,2.67 -4,3.27 -6.73,3.25l-11.26,-0.07c-2.34,0 -4.93,-0.13 -6.61,-1.75a4.92,4.92 0 0 1 -0.1,-6.48a2.22,2.22 0 1 0 -1.44,-4.2a11.94,11.94 0 0 1 0.21,-4.41c0,-4.18 1,-11.18 3.94,-14.45c3.61,-4.07 9.87,-9.33 15.32,-10.42a12,12 0 0 1 10.38,2.98c2.58,2.4 4.46,6.16 8,6.58c1.93,0.24 3.79,-0.67 5.7,-1a10.61,10.61 0 0 1 10.81,5.71a11.26,11.26 0 0 1 1,3.13a13,13 0 0 1 -2.04,9.29z"/>
  <path id="svg_44" opacity="0.1" d="m545.51,728.28a15.51,15.51 0 0 1 -10.93,6.44c-4.34,0.54 -8.85,-0.55 -13.06,0.64a4,4 0 0 0 -3,2.31a24.54,24.54 0 0 0 -0.19,2.45c-0.49,2.67 -4,3.27 -6.73,3.25l-11.26,-0.07c-2.34,0 -4.93,-0.13 -6.61,-1.75a4.92,4.92 0 0 1 -0.1,-6.48c6.5,-0.27 12.89,0 19.37,-1.34c2.63,-0.53 5.22,-1.23 7.88,-1.6c5.76,-0.82 11.89,-0.12 17.18,-2.56c4.41,-2 7.57,-6.07 9.44,-10.61a13,13 0 0 1 -1.99,9.32z"/>
  <path id="svg_45" fill="#454b69" d="m515.8,712.47c-4,3.1 -8.69,5.52 -13.73,5.78s-10.39,-2 -12.86,-6.38c-3.61,-6.43 -0.41,-15.37 -4.83,-21.27c-1.38,-1.85 -3.37,-3.16 -4.83,-4.95s-2.3,-4.48 -1,-6.38c-1.57,0.6 -3.23,-0.92 -3.69,-2.54s-0.17,-3.36 -0.45,-5c-0.73,-4.35 -5,-7.14 -7.05,-11s-1.77,-8.87 -2,-13.44a51,51 0 0 0 -11.8,-30.35c-1.36,-1.62 -3.1,-3.27 -5.22,-3.19c0.37,-3.66 -2.07,-7.16 -5.23,-9s-6.92,-2.46 -10.58,-2.82c-36.93,-3.64 -75.41,10.09 -110.67,-1.46c-9.81,-3.21 -19.27,-8.58 -25.27,-17a29.72,29.72 0 0 1 -5.29,-22.48l0,-0.14c1.39,-7.1 5.14,-8.85 11.35,-12.09a136.24,136.24 0 0 1 22.39,-9.39c15,-4.69 31.15,-6.38 46.63,-2.94c7.23,1.62 14.2,4.3 21.44,5.87c2.85,0.62 5.72,1.06 8.61,1.43c4.49,0.56 9,0.93 13.52,1.45a204.53,204.53 0 0 1 42.46,9.55c5.13,1.74 10.26,3.73 14.67,6.88a32.5,32.5 0 0 1 13.06,21.5c0.42,2.94 0.43,6 1.07,8.85a45,45 0 0 0 2.4,7a465.63,465.63 0 0 1 20.89,65a15.79,15.79 0 0 0 1.67,4.7c1.28,2.07 3.48,3.46 4.77,5.53c3,4.88 0.11,11.69 2.77,16.77c0.92,1.76 2.45,3.15 3.37,4.91c2.98,5.7 -1.45,12.63 -6.57,16.6z"/>
  <path id="svg_46" opacity="0.1" d="m464.7,597.57a16.5,16.5 0 0 0 3.63,-4a7.46,7.46 0 0 0 1.1,-5.17a14.79,14.79 0 0 1 -3.89,12.72c-2.51,2.57 -7.22,5.09 -10.89,4.21c0.52,-2.94 7.72,-5.76 10.05,-7.76z"/>
  <path id="svg_47" opacity="0.1" d="m402.22,547.73a6.71,6.71 0 0 1 -4.44,4.58a18.5,18.5 0 0 1 -6.59,0.77l-2,0c-26.24,-0.58 -52.76,-6.4 -78.39,-0.85a56.76,56.76 0 0 0 -9.06,2.67a40.9,40.9 0 0 0 -10.41,6l0,-0.14c1.39,-7.1 5.14,-8.85 11.35,-12.09a136.24,136.24 0 0 1 22.36,-9.3c15,-4.69 31.15,-6.38 46.63,-2.94c7.23,1.62 14.2,4.3 21.44,5.87c2.85,0.62 5.72,1.06 8.61,1.43a6.91,6.91 0 0 1 0.5,4z"/>
  <path id="svg_48" fill="#a26565" d="m402.22,546.3a6.7,6.7 0 0 1 -4.44,4.59a18.27,18.27 0 0 1 -6.59,0.76l-2,0c-26.24,-0.58 -52.76,-6.4 -78.39,-0.85a57.78,57.78 0 0 0 -9.06,2.66a41.2,41.2 0 0 0 -10.85,6.4q-1.15,-3.16 -2.29,-6.33c-0.92,-2.52 2,-3.08 2.56,-5.34c0.37,-1.53 -0.26,-3.27 -0.58,-4.9a8.55,8.55 0 0 1 -0.16,-1.21c-0.18,-3.61 1.11,-5.69 4.07,-7.64c8.78,-5.8 19.49,-9.78 29.51,-12.77a73,73 0 0 1 16.4,-3.18c7.88,-0.46 15.75,1 23.42,2.85c9.43,2.33 18.76,5.41 27.12,10.34c4.11,2.42 8.1,5.43 10.29,9.68a7.6,7.6 0 0 1 0.99,4.94z"/>
  <path id="svg_49" opacity="0.1" d="m317.75,486.24c-3,9.51 -11.19,18.08 -21.16,18.49a3.69,3.69 0 0 1 -2.11,-0.38c-1.25,-0.78 -1.28,-2.61 -0.77,-4s1.4,-2.64 1.54,-4.1a2.68,2.68 0 0 0 -0.06,-0.89c5.29,-7.46 10.42,-15 12.45,-23.83a12.74,12.74 0 0 0 0.37,-4.67c-0.27,-1.8 -1.18,-3.43 -1.68,-5.17c-0.88,-3.08 -0.47,-6.34 -0.22,-9.53a88,88 0 0 0 -6.84,-41.14c-1.35,-3.12 -2.89,-6.28 -3.36,-9.61a5.79,5.79 0 0 1 3.29,-2.81c3.28,-1.1 5.43,0.61 5.91,3.72c0.8,5.29 0.34,10.69 1.39,16a75,75 0 0 0 4.39,14.49c1.77,4.22 3.92,8.3 5.28,12.67a69.8,69.8 0 0 1 2.19,11c1.37,9.97 2.42,20.25 -0.61,29.76z"/>
  <path id="svg_50" opacity="0.1" d="m402.22,546.3a6.7,6.7 0 0 1 -4.44,4.59a18.27,18.27 0 0 1 -6.59,0.76l-2,0a43.57,43.57 0 0 0 -29,-7c-3.26,0.39 -6.52,1.15 -9.78,0.85c-6.59,-0.6 -11.93,-5.34 -17.8,-8.37a37.38,37.38 0 0 0 -41.43,5.62l-0.57,0.5a8.55,8.55 0 0 1 -0.16,-1.21c-0.18,-3.61 1.11,-5.69 4.07,-7.64c8.78,-5.8 19.49,-9.78 29.51,-12.77a73,73 0 0 1 16.4,-3.18c7.88,-0.46 15.75,1 23.42,2.85c9.43,2.33 18.76,5.41 27.12,10.34c4.11,2.42 8.1,5.43 10.29,9.68a7.6,7.6 0 0 1 0.96,4.98z"/>
  <path id="svg_51" fill="#7b341e" d="m424.65,436.76l-0.14,0.36c-2.24,5.81 -6.36,10.72 -9,16.38c-3.33,7.17 -4.15,15.21 -4.89,23.09c-0.64,6.75 -1.27,13.54 -0.76,20.31c1.28,16.68 9.43,32.5 11.61,48.86a54.31,54.31 0 0 1 0.41,11.41c-0.18,2.41 -0.62,5 -2.22,6.78s-4.71,2.48 -6.43,0.77c0.77,-1.47 1.55,-2.93 2.33,-4.4c-4.57,-3.55 -11.45,-1 -16.79,-3.22c-2.35,-1 -4.23,-2.8 -6.2,-4.41a43.48,43.48 0 0 0 -32.39,-9.46c-3.26,0.4 -6.52,1.16 -9.78,0.86c-6.59,-0.61 -11.93,-5.34 -17.8,-8.37a37.4,37.4 0 0 0 -41.43,5.61c-1.4,1.3 -3.28,2.82 -5,2a4.16,4.16 0 0 1 -1.55,-1.69c-6.55,-11.19 -1.73,-25.62 5.27,-36.52s16.27,-20.95 19.15,-33.55a12.53,12.53 0 0 0 0.37,-4.67c-0.27,-1.8 -1.18,-3.43 -1.68,-5.17c-0.88,-3.08 -0.47,-6.34 -0.22,-9.53a88,88 0 0 0 -6.84,-41.14c-1.6,-3.73 -3.5,-7.51 -3.5,-11.56c0,-6.38 4.57,-11.67 8.35,-16.8c4.35,-5.9 8,-12.43 13.51,-17.28c5.22,-4.61 12.78,-7.43 19.24,-5.09a119.94,119.94 0 0 1 33.56,-3.24c3.9,0.18 7.93,0.59 11.35,2.48c3.66,2 6.29,5.56 9.89,7.69c2.63,1.57 5.66,2.31 8.52,3.41a35.21,35.21 0 0 1 18.36,16.45c4,7.75 5,16.66 5.88,25.34c0.86,8.11 1.66,16.61 -1.18,24.3z"/>
  <path id="svg_52" opacity="0.1" d="m409.86,496.9c1.28,16.68 9.43,32.5 11.61,48.86c-4.36,-3.72 -10.41,-7.4 -11.24,-11.69c-0.9,-4.64 -3.78,-10.72 -4.26,-15.41s2.81,-10.42 -0.64,-13.64c-1.68,-1.57 2.79,-1.13 1.15,-2.74c-3.69,-3.59 -4.6,-9.12 -4.83,-14.25c-0.39,-9.08 0.76,-18.26 -0.91,-27.19c-1,-5.51 -3.09,-10.76 -4.76,-16.11c-1.94,-6.23 -3.34,-12.61 -4.74,-19a133.12,133.12 0 0 1 -3,-17.26c-0.43,-5 -0.23,-10.3 2,-14.86s6.74,-8.26 11.8,-8.19c16.92,0.22 14,23.16 17.72,33.76c1.49,4.22 3.5,8.3 4.31,12.7a33.66,33.66 0 0 1 0.48,5.22c-2.24,5.81 -6.36,10.72 -9,16.38c-3.33,7.17 -4.15,15.21 -4.89,23.09c-0.68,6.77 -1.31,13.56 -0.8,20.33z"/>
  <path id="svg_53" fill="#7b341e" d="m420.86,418.92c1.49,4.22 3.5,8.3 4.31,12.7c1.35,7.37 -0.74,15.2 1.53,22.34a38.92,38.92 0 0 1 1.48,4.67c0.39,2.27 -0.06,4.59 -0.06,6.9c0,3.72 1.17,7.32 2.21,10.89a194.63,194.63 0 0 1 6.95,37.15a46.59,46.59 0 0 0 1.59,10a33.21,33.21 0 0 1 1.08,3.38a17.48,17.48 0 0 1 0.19,4.63c-0.27,4.9 -0.82,9.82 -0.27,14.7s2.33,9.83 6,13.1c-3.28,0.71 -6.75,1.42 -9.95,0.37c-4.5,-1.47 -7.2,-6 -9.49,-10.12c-2.9,-5.26 -13.92,-10 -15.06,-15.91c-0.89,-4.63 -3.77,-10.71 -4.25,-15.41s2.8,-10.41 -0.65,-13.63c-1.67,-1.57 2.8,-1.14 1.15,-2.74c-3.68,-3.59 -4.59,-9.12 -4.82,-14.26c-0.39,-9.07 0.75,-18.25 -0.91,-27.18c-1,-5.51 -3.09,-10.76 -4.76,-16.12c-1.94,-6.22 -3.34,-12.6 -4.74,-19a131.73,131.73 0 0 1 -3,-17.26c-0.43,-5 -0.24,-10.31 2,-14.87s6.75,-8.25 11.8,-8.19c16.85,0.31 13.95,23.26 17.67,33.86z"/>
  <path id="svg_54" opacity="0.1" d="m372.64,422.83c1.58,1.85 3.61,3.88 6,3.52a1.3,1.3 0 0 1 -1.77,0.42a3.8,3.8 0 0 1 -1.33,-1.53l-3.42,-5.77c-0.45,-0.75 -3.55,-5.12 -4.31,-2.6c-0.3,1.07 4.06,5.06 4.83,5.96z"/>
  <path id="svg_55" opacity="0.1" d="m370.8,437.22a7.62,7.62 0 0 0 -2.23,-5a12.5,12.5 0 0 0 -4.13,-2.49c-3.75,-1.54 -8.19,-2.78 -12.26,-2.58c1.48,2.16 6.23,3.45 8.61,4.67q5.06,2.61 10.01,5.4z"/>
  <path id="svg_56" opacity="0.1" d="m381.45,478.18c-0.69,5.12 -4.88,9 -9.12,12s-9,5.58 -11.77,9.92c-1.92,3 -2.78,6.48 -4.41,9.61c-1.8,3.45 -4.49,6.35 -6.64,9.59s-3.83,7.11 -3.17,10.95a1.29,1.29 0 0 0 0.46,0.92a1.31,1.31 0 0 0 1.27,-0.14c4.36,-2.28 6.08,-7.49 7.91,-12a138.65,138.65 0 0 1 6.48,-13.32c1.08,-2 2.27,-4.18 4.28,-5.29a37.55,37.55 0 0 1 4.22,-1.47a14.19,14.19 0 0 0 5.21,-4.09a34.34,34.34 0 0 0 8,-23.31c-0.06,-1.79 -0.16,-10.41 -2.85,-7.75s0.59,10.9 0.13,14.38z"/>
  <path id="svg_57" fill="#a26565" d="m388.04,281.81c8.6,3.75 16,12 15.73,21.35c-0.23,9.82 -8.45,19.07 -5.62,28.48c1.64,5.46 6.58,9.12 10.49,13.27c14.89,15.76 14.86,43.27 -0.08,59c-5.72,6 -13.07,10.27 -19.12,16c-21.33,20.1 -22.24,54.87 -10.82,81.86a133.14,133.14 0 0 1 -26.62,3c-4.19,0.05 -9.32,-0.71 -10.84,-4.62c-1.4,-3.61 1,-8.49 -1.76,-11.16c-1.3,-1.25 -3.25,-1.42 -5,-1.71c-11.26,-1.82 -20.5,-10.81 -24.72,-21.4s-4,-22.51 -1.58,-33.65c1.72,-8.05 4.41,-16.91 0.42,-24.11c-5,-9.06 -19.38,-12.88 -19.16,-23.24c0.18,-8.49 10.19,-12.62 15.87,-18.93c10.48,-11.62 5.49,-29.65 5.47,-45.31c0,-13.78 4.82,-28 15.08,-37.18c15.26,-13.77 44.65,-9.3 62.26,-1.65z"/>
  <g id="svg_58" opacity="0.1">
   <path id="svg_59" d="m310.16,397.85c-4.39,-7.92 -15.92,-11.84 -18.6,-19.63a11.09,11.09 0 0 0 -2.16,6.26c-0.22,10.36 14.14,14.18 19.16,23.25a18.89,18.89 0 0 1 2,10.42c1.58,-6.96 2.97,-14.22 -0.4,-20.3z"/>
   <path id="svg_60" d="m399.3,318.82c1.8,-5.25 4.41,-10.55 4.54,-16a15,15 0 0 0 -0.05,-1.77c-2.01,5.99 -5.09,11.86 -4.49,17.77z"/>
   <path id="svg_61" d="m311.88,346.79c3.44,-10.87 0.47,-24.35 0.46,-36.41c0,-1.46 0.06,-2.93 0.17,-4.39a57.74,57.74 0 0 0 -1.78,14.26c0.02,8.61 1.53,17.95 1.15,26.54z"/>
   <path id="svg_62" d="m410.23,393.68c-5.72,6 -13.07,10.27 -19.12,16c-10.8,10.17 -16.35,24.1 -17.74,38.87c2.58,-11 7.79,-21.13 16.14,-29c6,-5.7 13.4,-9.95 19.12,-16a42.49,42.49 0 0 0 11.15,-27.06a40.61,40.61 0 0 1 -9.55,17.19z"/>
   <path id="svg_63" d="m353.67,494.51c-4.19,0 -9.32,-0.72 -10.84,-4.63c-1.4,-3.6 1,-8.48 -1.76,-11.16c-1.3,-1.25 -3.26,-1.42 -5,-1.71c-11.25,-1.81 -20.49,-10.81 -24.71,-21.39c-3.11,-7.82 -3.78,-16.35 -3,-24.77c-0.08,0.33 -0.15,0.66 -0.22,1c-2.38,11.14 -2.63,23.07 1.58,33.66s13.46,19.58 24.71,21.39c1.78,0.29 3.74,0.47 5,1.71c2.79,2.68 0.36,7.56 1.76,11.16c1.52,3.91 6.65,4.68 10.84,4.63a133.23,133.23 0 0 0 26.62,-3a89.38,89.38 0 0 1 -3.23,-8.93a132.74,132.74 0 0 1 -21.75,2.04z"/>
  </g>
  <path id="svg_64" opacity="0.1" d="m386.42,450.9c2.47,1.86 5.15,-5.23 3.62,-7c-0.41,0.46 -4,6.74 -3.62,7z"/>
  <path id="svg_65" opacity="0.1" d="m396.95,579.24c2.91,-1 6,-2 7.9,-4.4c1.57,-1.93 2.86,-9.59 -0.46,-5.92c-2.82,3.13 -4.15,7.3 -7.44,10.32z"/>
  <path id="svg_66" opacity="0.1" d="m426.58,571.21c-0.35,2.36 -1,4.81 -2.67,6.51c-0.31,0.32 -1,0.52 -1.09,0.09a25.29,25.29 0 0 0 5.16,-3.64c3.38,-3.35 3.84,-11.6 -1.31,-13.79c-0.05,3.62 0.46,7.19 -0.09,10.83z"/>
  <path id="svg_67" fill="#454b69" d="m462.15,556.34s-28.38,-11.15 -38.64,-10s11.62,17.32 11.62,17.32l13.08,8.82s8,-3 8.53,-3.23s5.41,-12.91 5.41,-12.91z"/>
  <path id="svg_68" fill="#565661" d="m266.88,436.72s21.32,-12.36 49.46,3s32.83,105.75 32.83,105.75s-11.51,92.1 32.87,71.62c0,0 81,-25.15 89.11,-19.61c0,0 7.68,0 -7.67,3.41s-74.62,22.17 -74.62,22.17s-19.17,6.7 -27.29,0s-31.13,0.86 -34.12,-45.2a801,801 0 0 0 -10.66,-86.56l-7.91,-23.45l-42,-31.13z"/>
  <path id="svg_69" fill="#fff" d="m264.32,579.14s9.38,-93.38 -6,-127.07c-13.38,-29.36 38.36,-15.63 51.86,-11.63a9.83,9.83 0 0 1 5.18,3.7c8,11.25 36.7,56.34 28.24,116.67c0,0 -3.41,53.73 17.91,62.25l-65.69,-21.16c-5.33,-1.72 -10.74,-3.15 -16.2,-4.39c-6.96,-1.58 -18.3,-6.07 -15.3,-18.37z"/>
  <path id="svg_70" fill="#6415ff" d="m666.9,412.08s-4.59,21.38 15.84,23.91l1.27,-2.37s-15.84,-14.89 -17.11,-21.54z"/>
  <path id="svg_71" fill="#6415ff" d="m690.5,433.45l-4.75,1l-0.47,0.11s-12.68,-10.29 -12.52,-33.26a58.25,58.25 0 0 0 6,9.58c5.08,6.69 10.79,15.52 11.74,22.57z"/>
  <path id="svg_72" fill="#6415ff" d="m692.11,435.66a3,3 0 0 1 -2.56,0.33c-12.2,-2.85 -8.07,-42.59 -8.07,-42.59c0.67,0.31 1.41,5.36 4.21,11.89c4.93,11.47 10.35,27.49 6.42,30.37z"/>
  <path id="svg_73" fill="#6415ff" d="m719.16,412.08s0.79,21.38 -19.64,23.91l-1.26,-2.37s19.63,-14.89 20.9,-21.54z"/>
  <path id="svg_74" fill="#6415ff" d="m713.3,401.31c0.16,22.97 -16.26,33.26 -16.26,33.26l-0.47,-0.11l-4.75,-1c0.94,-7.05 6.66,-15.92 11.67,-22.56a51.49,51.49 0 0 1 9.81,-9.59z"/>
  <path id="svg_75" fill="#6415ff" d="m696.44,433.57a7.57,7.57 0 0 1 -2.72,2.08l0,0a5,5 0 0 1 -1,0.33c-3,0.7 -4,-1.46 -3.88,-5.14c0.28,-6.55 4.4,-17.9 8.09,-26.39c2.66,-6.12 7,-10.76 7.66,-11.06c0,0.01 -0.18,30.95 -8.15,40.18z"/>
  <path id="svg_76" fill="#6415ff" d="m693.04,379.46s-13.62,48.3 -1.9,55.58s4.9,-51.31 1.9,-55.58z"/>
  <path id="svg_77" opacity="0.1" d="m666.9,412.08s-4.59,21.38 15.84,23.91l1.27,-2.37s-15.84,-14.89 -17.11,-21.54z"/>
  <path id="svg_78" opacity="0.1" d="m690.5,433.45l-4.75,1l-0.47,0.11s-12.68,-10.29 -12.52,-33.26a58.25,58.25 0 0 0 6,9.58c5.08,6.69 10.79,15.52 11.74,22.57z"/>
  <path id="svg_79" opacity="0.1" d="m692.11,435.66a3,3 0 0 1 -2.56,0.33c-12.2,-2.85 -8.07,-42.59 -8.07,-42.59c0.67,0.31 1.41,5.36 4.21,11.89c4.93,11.47 10.35,27.49 6.42,30.37z"/>
  <path id="svg_80" opacity="0.1" d="m719.16,412.08s0.79,21.38 -19.64,23.91l-1.26,-2.37s19.63,-14.89 20.9,-21.54z"/>
  <path id="svg_81" opacity="0.1" d="m713.3,401.31c0.16,22.97 -16.26,33.26 -16.26,33.26l-0.47,-0.11l-4.75,-1c0.94,-7.05 6.66,-15.92 11.67,-22.56a51.49,51.49 0 0 1 9.81,-9.59z"/>
  <path id="svg_82" opacity="0.1" d="m696.44,433.57a7.57,7.57 0 0 1 -2.72,2.08l0,0a5,5 0 0 1 -1,0.33c-3,0.7 -4,-1.46 -3.88,-5.14c0.28,-6.55 4.4,-17.9 8.09,-26.39c2.66,-6.12 7,-10.76 7.66,-11.06c0,0.01 -0.18,30.95 -8.15,40.18z"/>
  <path id="svg_83" opacity="0.1" d="m693.04,379.46s-13.62,48.3 -1.9,55.58s4.9,-51.31 1.9,-55.58z"/>
  <path id="svg_84" fill="#7b341e" d="m666.9,412.08s-2.69,21.38 17.74,23.91l1.27,-2.37s-17.74,-14.89 -19.01,-21.54z"/>
  <path id="svg_85" fill="#7b341e" d="m692.4,433.45l-4.75,1l-0.47,0.11s-14.58,-10.29 -14.42,-33.26c0,0 3.74,4 7.95,9.58c5.03,6.69 10.74,15.52 11.69,22.57z"/>
  <path id="svg_86" opacity="0.1" d="m692.4,433.45l-4.75,1c-4.5,-3.95 -6.29,-14.27 -6.94,-23.57c5.03,6.69 10.74,15.52 11.69,22.57z"/>
  <path id="svg_87" fill="#7b341e" d="m694.04,435.66a3,3 0 0 1 -2.56,0.33c-12.2,-2.85 -10,-42.59 -10,-42.59c0.67,0.31 3.31,5.36 6.11,11.89c4.93,11.47 10.33,27.49 6.45,30.37z"/>
  <path id="svg_88" fill="#7b341e" d="m719.16,412.08s2.69,21.38 -17.74,23.91l-1.26,-2.37s17.73,-14.89 19,-21.54z"/>
  <path id="svg_89" fill="#7b341e" d="m714.3,402.31c0.16,23 -14.41,33.26 -14.41,33.26l-0.47,-0.11l-4.75,-1c0.94,-7.05 6.66,-15.92 11.67,-22.56c4.23,-5.59 7.96,-9.59 7.96,-9.59z"/>
  <path id="svg_90" opacity="0.1" d="m705.34,410.89c-0.61,8.67 -2.19,18.22 -6,22.69a9.06,9.06 0 0 1 -0.87,0.88l-4.75,-1c0.89,-7.06 6.61,-15.89 11.62,-22.57z"/>
  <path id="svg_91" fill="#7b341e" d="m698.34,433.57a7.57,7.57 0 0 1 -2.72,2.08l0,0a5,5 0 0 1 -1,0.33c-3,0.7 -4.05,-1.46 -3.88,-5.14c0.28,-6.55 4.4,-17.9 8.09,-26.39c2.66,-6.12 5.12,-10.76 5.76,-11.06c0,0.01 1.72,30.95 -6.25,40.18z"/>
  <path id="svg_92" opacity="0.1" d="m694.04,435.66a3.35,3.35 0 0 1 -1.93,-0.62c-5.74,-3.57 -5.85,-17 -4.49,-29.75c4.9,11.47 10.3,27.49 6.42,30.37z"/>
  <path id="svg_93" opacity="0.1" d="m698.34,433.57c-0.66,1.42 -1.55,2.18 -2.72,2.08l0,0a3.92,3.92 0 0 1 -1.63,-0.62a8.67,8.67 0 0 1 -3.24,-4.19c0.28,-6.55 4.4,-17.9 8.09,-26.39c1.31,11.8 1.75,24.29 -0.5,29.12z"/>
  <path id="svg_94" fill="#7b341e" d="m692.04,384.46s-11.72,48.3 0,55.58s3,-51.31 0,-55.58z"/>
  <polygon id="svg_95" fill="#565661" points="711.41 437.42 710.59 441.69 707.61 457.37 679.25 457.37 676.27 441.69 675.45 437.42 711.41 437.42"/>
  <polygon id="svg_96" opacity="0.1" points="711.41 437.42 710.59 441.69 676.27 441.69 675.45 437.42 711.41 437.42"/>
  <rect id="svg_97" fill="#565661" height="8.08" width="48.77" y="432.67" x="668.65"/>
  <path id="svg_98" fill="#d1d9ec" d="m552.77,448.18l-26.73,2.15l-38.09,-2.48l0.66,-0.06l35.28,-3.4c8.08,-3 2.48,-20.45 2.48,-20.45l27,1.38l2.15,0.11c9.61,22.42 -2.75,22.75 -2.75,22.75z"/>
  <path id="svg_99" opacity="0.1" d="m552.77,448.18l-26.73,2.15l-38.09,-2.48l0.66,-0.06l38.5,1.38l25.8,-2.8c7.32,-1.93 3.13,-14.64 0.49,-21.05l2.15,0.11c9.58,22.42 -2.78,22.75 -2.78,22.75z"/>
  <path id="svg_100" fill="#4c4c56" d="m599.54,289.38l-8.17,117.19l-1.07,15.39a6.68,6.68 0 0 1 -6.71,6.21l-2.48,0l-123,-0.75a3.45,3.45 0 0 1 -3.41,-3.79l1.06,-10.39l8.65,-85.06a7.13,7.13 0 0 1 4.73,-6l117.23,-40.59c4,-1.38 8,-0.89 10.59,1.22a7.48,7.48 0 0 1 2.58,6.57z"/>
  <path id="svg_101" fill="#dfe6f5" d="m591.37,406.57l-1.07,15.39a6.68,6.68 0 0 1 -6.71,6.21l-2.48,0l-123,-0.75a3.45,3.45 0 0 1 -3.41,-3.79l1.06,-10.39l135.61,-6.67z"/>
  <ellipse id="svg_102" fill="#fff" ry="3.3" rx="1.65" cy="419.33" cx="508.91"/>
  <path id="svg_103" fill="#d1d9ec" d="m569.12,452.04s33.64,-12.7 42.71,-3.46c0,0 1.48,2.8 -4.62,3.46l-24.65,2s-10.14,0.97 -13.44,-2z"/>
  <path id="svg_104" fill="#dfe6f5" d="m570.04,448.74c6.61,-2.7 26.5,-9.69 39.23,-2c0,0 -14.09,-1.56 -21.82,2.91s-18.31,2.35 -18.31,2.35l-0.15,-0.28a2.13,2.13 0 0 1 1.05,-2.98z"/>
  <path id="svg_105" fill="#dfe6f5" d="m599.54,289.38l-9.24,132.6a6.68,6.68 0 0 1 -6.71,6.21l-2.48,0a23.49,23.49 0 0 0 4.3,-5.56s9.07,-133.22 9.73,-136.52a6.82,6.82 0 0 1 1.83,-3.26a7.48,7.48 0 0 1 2.57,6.53z"/>
  <path id="svg_106" opacity="0.1" d="m599.54,289.38l-9.24,132.6a6.68,6.68 0 0 1 -6.71,6.21l-2.48,0a23.49,23.49 0 0 0 4.3,-5.56s9.07,-133.22 9.73,-136.52a6.82,6.82 0 0 1 1.83,-3.26a7.48,7.48 0 0 1 2.57,6.53z"/>
  <ellipse id="svg_107" opacity="0.1" fill="#7b341e" ry="15.65" rx="97.44" cy="730.07" cx="148.97"/>
  <rect id="svg_108" fill="#535461" height="141.17" width="6.27" y="430.26" x="145.83"/>
  <path id="svg_109" fill="#565661" d="m191.51,571l-0.39,6.36l-0.56,9l-0.23,3.74l-0.55,9l-0.24,3.74l-0.56,9l-6.32,102.07a17.3,17.3 0 0 1 -17.26,16.22l-32.87,0a17.28,17.28 0 0 1 -17.24,-16.22l-6.34,-102.14l-0.55,-9l-0.23,-3.74l-0.57,-9l-0.23,-3.74l-0.55,-9l-0.4,-6.36a9,9 0 0 1 8.94,-9.51l67.22,0a9,9 0 0 1 8.93,9.58z"/>
  <polygon id="svg_110" fill="#9d9cb5" points="191.12 577.36 190.56 586.33 107.38 586.33 106.82 577.36 191.12 577.36"/>
  <polygon id="svg_111" fill="#9d9cb5" points="190.33 590.08 189.78 599.06 108.17 599.06 107.61 590.08 190.33 590.08"/>
  <polygon id="svg_112" fill="#9d9cb5" points="189.54 602.8 188.98 611.77 108.95 611.77 108.4 602.8 189.54 602.8"/>
  <path id="svg_113" fill="#7b341e" d="m97.24,483.17c36.52,26.42 51.73,67.74 51.73,67.74s-44,-1.51 -80.53,-27.93s-51.72,-67.73 -51.72,-67.73s44.01,1.51 80.52,27.92z"/>
  <path id="svg_114" stroke-width="2" stroke-miterlimit="10" stroke="#535461" fill="none" d="m16.72,455.25s45.67,25.32 60.32,46.32s71.92,49.32 71.92,49.32"/>
  <path id="svg_115" fill="#7b341e" d="m120.81,429.95c19.88,14.37 28.16,36.87 28.16,36.87s-24,-0.83 -43.83,-15.2s-28.1,-36.87 -28.1,-36.87s23.9,0.82 43.77,15.2z"/>
  <path id="svg_116" stroke-width="2" stroke-miterlimit="10" stroke="#535461" fill="none" d="m77.04,414.75s24.86,13.8 32.83,25.22s39.15,26.85 39.15,26.85"/>
  <path id="svg_117" fill="#7b341e" d="m177.85,465.67c-22.81,25.09 -27.66,57.9 -27.66,57.9s32.19,-7.9 55,-33s27.66,-57.88 27.66,-57.88s-32.17,7.88 -55,32.98z"/>
  <path id="svg_118" stroke-width="2" stroke-miterlimit="10" stroke="#535461" fill="none" d="m232.87,432.68s-29.74,25.72 -37.3,43.44s-45.38,47.45 -45.38,47.45"/>
 </g>
</svg> -->


<svg width="1000" height="813.14" xmlns="http://www.w3.org/2000/svg" xmlns:xlink="http://www.w3.org/1999/xlink" data-name="Layer 1">
 <defs>
  <linearGradient id="bc196d5e-e6db-431f-8e4d-c46ceaa79599" x1="0" y1="0.50002" x2="0.99999" y2="0.50002">
   <stop offset="0" stop-color="gray" stop-opacity="0.25"/>
   <stop offset="0.54" stop-color="gray" stop-opacity="0.12"/>
   <stop offset="1" stop-color="gray" stop-opacity="0.1"/>
  </linearGradient>
  <linearGradient id="f896ccf3-93a4-4918-87f1-59b3ca8c3ed3" x1="336.95" y1="228.29" x2="344.66" y2="228.29" xlink:href="#bc196d5e-e6db-431f-8e4d-c46ceaa79599"/>
  <linearGradient id="c21cd8c1-ce7b-4f09-a7b6-09df42e9ccdb" x1="458.41" y1="588.17" x2="460.73" y2="588.17" xlink:href="#bc196d5e-e6db-431f-8e4d-c46ceaa79599"/>
 </defs>
 <title>winter designer</title>
 <g>
  <title>Layer 1</title>
  <path d="m584.48,132.75c-71.37,12.06 -142.64,6.89 -211.2,-0.63s-136.95,-17.34 -208.35,-14.38c-45.93,1.9 -97.08,11 -129.15,37.45c-30.87,25.44 -35.68,59.77 -35.74,90.76c-0.08,23.31 1.94,47.43 18.46,66c11.48,12.88 29.15,22.11 42.46,34c46.31,41.3 32.23,106.33 1.84,161.62c-14.26,25.94 -31.7,51.45 -41.41,78s-11,55 6.38,76.65c17.18,21.35 50.49,33.49 85.27,39.76c70.54,12.74 149.13,4.83 225.17,-5.89c168.28,-23.73 334.83,-60.85 501.02,-97.88c61.49,-13.71 123.25,-27.48 182.49,-47.24c32.9,-11 66.4,-24.69 87.65,-46c27,-27 27.68,-63.93 1.66,-86c-43.66,-37 -142.48,-28.79 -176.25,-71.09c-18.58,-23.29 -10.49,-54.92 4.3,-82.86c31.71,-59.92 93,-119.12 85.06,-178.86c-5.48,-41 -47.29,-74.93 -103.33,-83.77c-58.74,-9.26 -134.18,8.3 -168,49.56c-34.77,42.51 -105.31,70.16 -168.33,80.8z" fill="#3182ce" opacity="0.1" id="svg_1"/>
  <rect x="87.07" y="105.03" width="415.7" height="195.79" fill="#565661" id="svg_2"/>
  <rect x="96.65" y="119.43" width="398" height="166.99" fill="#dfe6f5" id="svg_3"/>
  <path fill="#7b341e" id="svg_4"/>
  <path d="m152.26,192.91c1.38,-1.43 2.56,-3.09 4.21,-4.19a19.66,19.66 0 0 1 4.66,-2c12,-4.23 21.37,-13.47 30.95,-21.83c8.44,-7.37 17.31,-14.23 26.17,-21.08l3.37,2.46l-8.09,3.3c-0.78,0.32 -1.68,0.8 -1.72,1.64a2.23,2.23 0 0 0 0.64,1.42c2.08,2.68 4.42,5.54 7.73,6.29c1.58,0.36 3.49,0.31 4.47,1.6a6.17,6.17 0 0 1 0.8,2.08c1.28,4.36 5.23,7.35 9.11,9.72a91.46,91.46 0 0 0 24.66,10.42a58.1,58.1 0 0 1 -19.18,-3.88a27.3,27.3 0 0 1 -5.23,-2.57c-3.49,-2.28 -6.11,-5.67 -9.5,-8.09s-8.23,-3.71 -11.64,-1.32c-0.93,0.66 -1.83,1.6 -3,1.54s-2,-1.18 -3,-1.87c-2.55,-1.82 -6.11,-0.61 -8.84,0.93a45.76,45.76 0 0 0 -18.72,20.19a52.19,52.19 0 0 0 34.2,-9.89a44.1,44.1 0 0 0 24.27,16.91c-1.44,1.75 -3.81,2.32 -5.92,3.14a21.7,21.7 0 0 0 -12.45,12.92a20.7,20.7 0 0 1 -3.46,-7.39a98.35,98.35 0 0 0 -9.4,6a20.36,20.36 0 0 0 6.86,-7.39a22.94,22.94 0 0 0 -15.46,1.66c-3.5,1.72 -6.74,4.4 -10.64,4.61a9,9 0 0 0 -6.29,-9.69c-2.75,-0.77 -6.3,-0.45 -7.78,-2.9a20.41,20.41 0 0 1 -0.89,-2.16c-1.14,-2.55 -4.16,-3.83 -6.95,-3.75s-5.42,1.22 -8,2.35c-3.68,1.62 -7.33,3.4 -11.07,4.86c1.69,-1.44 3.58,-2.48 5.13,-4.04z" fill="#3182ce" id="svg_5"/>
  <path d="m216.55,227.98a27.22,27.22 0 0 0 14.54,-2.31c2.48,-1.15 4.85,-2.69 7.54,-3.15s5.94,0.61 6.83,3.2c3.23,-2.32 3.82,-6.93 6.41,-9.95c3.81,-4.45 11.2,-4.17 16,-0.8s7.48,9 9.48,14.46c1.51,4.16 2.86,8.61 6,11.7s8.91,4.09 11.84,0.77a17.41,17.41 0 0 1 -1.58,-18.33c0.68,-1.29 1.55,-2.59 1.5,-4c-0.11,-3.14 -4,-4.38 -6.5,-6.3c-5.41,-4.14 -4.7,-12.78 -9.08,-18c-2.32,-2.77 -6.25,-5.21 -5.58,-8.76a98.4,98.4 0 0 1 37.09,15.78a30.42,30.42 0 0 0 5.82,3.53c2.76,1.11 5.81,1.24 8.62,2.2c9.35,3.18 14.76,14.88 24.6,15.69c4.9,0.4 9.49,-2.12 14.07,-3.93c19.47,-7.69 41.44,-2.84 61.57,2.91c-7,-3.85 -16.89,-3.28 -21.33,-9.92c-1.52,-2.27 -2.19,-5.19 -4.3,-6.93c-4.14,-3.42 -10.19,-0.13 -15.54,0.38a14.65,14.65 0 0 1 -13.2,-6.19c-1.44,-2.11 -2.35,-4.63 -4.24,-6.33c-2.77,-2.48 -6.86,-2.58 -10.58,-2.54l-17.45,0.16c-2.93,0 -6.23,-0.11 -8.19,-2.29a24.12,24.12 0 0 0 -2.12,-2.69c-1.15,-1 -2.75,-1.13 -4.24,-1.34a40.63,40.63 0 0 1 -13.88,-4.59a4.12,4.12 0 0 1 -2,-1.8c-1.12,-2.65 2.94,-4.12 5.21,-5.89c3.7,-2.9 2.88,-8.61 1.7,-13.15a16.82,16.82 0 0 0 8.15,-4.34c-4.2,-3.87 -8.81,-9.15 -7,-14.56c0.4,-1.19 0.62,-3.12 -0.63,-3.09a18.88,18.88 0 0 1 -8,8.62a7.27,7.27 0 0 0 -2.88,2.13c-1.27,2 0.05,5.05 -1.53,6.83a4.77,4.77 0 0 1 -2.05,1.2c-5.27,1.89 -11.76,2.28 -14.93,6.9a23.46,23.46 0 0 0 -2.39,6a33.12,33.12 0 0 1 -23.51,21.31c-1.82,0.42 -3.81,0.75 -5.09,2.11c-1,1 -1.34,2.43 -2.17,3.55c-1.66,2.25 -4.67,2.86 -7.28,3.86c-7.47,2.85 -12.06,9.37 -16.23,15.82c-1.76,2.72 -3.05,3.54 -5.94,4.81a14.8,14.8 0 0 0 -4.77,2.94c-0.27,0.3 -2.99,4.29 -2.76,4.32z" fill="#3182ce" id="svg_6"/>
  <path d="m348.58,172.27a49.26,49.26 0 0 1 -10.4,4a20.85,20.85 0 0 1 4.9,2.11a9.31,9.31 0 0 1 -3.44,5.19c4,0.13 7.79,1.6 11.64,2.65c6.39,1.73 13,2.3 19.62,2.87l-9,-6.57c-1.32,-1 -2.74,-2.06 -3.07,-3.66a6.47,6.47 0 0 1 1.08,-4.19c2.28,-4.31 5.05,-8.25 7.67,-12.33c-3.22,1.11 -7.45,0.19 -10.35,1.54c-1.81,0.84 -2.13,2.62 -3.21,4.11a15.09,15.09 0 0 1 -5.44,4.28z" fill="#3182ce" id="svg_7"/>
  <path d="m403.04,182.33a20.49,20.49 0 0 1 -4,6.26a11,11 0 0 0 5.75,2.75a27.39,27.39 0 0 1 3.27,0.47a11.92,11.92 0 0 1 3.47,1.87c7,4.85 14.53,10.44 16.48,18.73a5.87,5.87 0 0 1 7.66,1.73c0.86,1.31 1.3,3.09 2.73,3.73s3,-0.2 4.13,-1.17s2.25,-2.16 3.72,-2.5a7.14,7.14 0 0 1 2.76,0.09l13.31,2.15a17.61,17.61 0 0 0 -14.26,-5.13c-3.22,0.35 -6.58,1.57 -9.57,0.35s-4.53,-4.44 -6.89,-6.62c-3,-2.78 -7.33,-3.84 -10.32,-6.65c-2.49,-2.36 -3.81,-5.7 -6.07,-8.28c-2.45,-2.81 -5.94,-4.63 -8.09,-7.67c-0.87,-1.23 -1.56,-2.68 -2.84,-3.46c-2.25,-1.36 -6.87,-1.24 -9.43,-1.48c0.61,3.01 5.31,5.38 8.19,4.83z" fill="#3182ce" id="svg_8"/>
  <path d="m171.79,156.57a66.89,66.89 0 0 0 6.79,0.12a1.2,1.2 0 0 0 0.63,-0.15a1.15,1.15 0 0 0 0.35,-0.71l0.81,-3.58a1.41,1.41 0 0 1 0.4,-0.84a1.4,1.4 0 0 1 1.36,0a25.16,25.16 0 0 1 6.51,3.62q-1.28,-3.87 -2.28,-7.83l6.13,-1.08c-4.65,-1.11 -7,-0.55 -10,2.74c-1.76,1.89 -8,7.88 -10.7,7.71z" fill="#3182ce" id="svg_9"/>
  <circle cx="294.92" cy="82.92" r="5.57" fill="#565661" id="svg_10"/>
  <polyline points="259.22 110.42 294.92 82.92 330.99 110.42" fill="none" stroke="#565661" stroke-miterlimit="10" id="svg_11"/>
  <path d="m300.63,184.19l0.44,0.28l0.92,-0.1l-1.36,-0.18z" fill="url(#bc196d5e-e6db-431f-8e4d-c46ceaa79599)" id="svg_12"/>
  <path d="m302.04,184.37l7.71,1a17.93,17.93 0 0 0 -7.71,-1z" fill="url(#f896ccf3-93a4-4918-87f1-59b3ca8c3ed3)" id="svg_13"/>
  <rect x="322" y="461.24" width="283.43" height="65.63" fill="#565661" id="svg_14"/>
  <rect x="322" y="461.24" width="283.43" height="65.63" opacity="0.1" id="svg_15"/>
  <polygon points="355.91 529.03 357.9 704.24 330.64 773.06 328.53 529.03 355.91 529.03" fill="#bcbec9" id="svg_16"/>
  <polygon points="324.99 473.84 600.94 475.5 600.94 524.38 324.99 524.38 324.99 473.84" fill="#565661" id="svg_17"/>
  <polygon points="577.33 529.03 600.94 532.36 600.94 770.4 577.33 697.59 577.33 529.03" fill="#bcbec9" id="svg_18"/>
  <rect x="609.91" y="463.87" width="132.99" height="282.6" fill="#efeff0" id="svg_19"/>
  <rect x="620.55" y="471.72" width="111.71" height="217.23" fill="#565661" id="svg_20"/>
  <rect x="620.55" y="471.72" width="111.71" height="217.23" opacity="0.1" id="svg_21"/>
  <rect x="620.55" y="476.17" width="111.71" height="48.21" fill="#565661" id="svg_22"/>
  <rect x="620.55" y="529.03" width="111.71" height="102.4" fill="#565661" id="svg_23"/>
  <rect x="620.55" y="637.75" width="111.71" height="102.4" fill="#565661" id="svg_24"/>
  <ellipse cx="625.21" cy="755.67" rx="7.2" ry="9.2" fill="#565661" id="svg_25"/>
  <ellipse cx="725.06" cy="756.11" rx="7.2" ry="9.2" fill="#565661" id="svg_26"/>
  <polygon points="321 773.06 330.64 773.06 327.99 466.32 313.35 466.32 321 773.06" fill="#efeff0" id="svg_27"/>
  <polygon points="600.94 463.87 600.94 770.4 609.91 770.4 609.91 466.32 600.94 463.87" fill="#efeff0" id="svg_28"/>
  <polygon points="328.46 521.38 328.46 532.36 600.94 532.36 600.94 524.38 328.46 521.38" fill="#efeff0" id="svg_29"/>
  <polygon points="346.93 443.26 692.37 443.26 742.57 459.88 742.57 469.52 311.69 466.2 311.69 456.39 346.93 443.26" fill="#efeff0" id="svg_30"/>
  <polygon points="311.69 456.39 742.57 459.88 742.57 469.52 311.69 466.2 311.69 456.39" fill="#bcbec9" id="svg_31"/>
  <path d="m425.72,545.71l-2,-0.3c0,-0.09 0,-0.17 0,-0.25c-0.06,-0.47 -0.13,-0.93 -0.2,-1.4c0.82,0.65 1.6,1.3 2.32,1.95l-0.12,0z" fill="url(#c21cd8c1-ce7b-4f09-a7b6-09df42e9ccdb)" id="svg_32"/>
  <path d="m382.26,700.12c1.3,-0.3 2.62,-0.55 3.94,-0.73a47.42,47.42 0 0 1 26.62,3.92c-0.84,6.18 -1.67,12.57 0.11,18.54c1.24,4.2 3.73,8 4.26,12.38a7.3,7.3 0 0 1 5.75,5.08a11.05,11.05 0 0 1 0.57,3.56a19,19 0 0 1 -0.56,4.44a4.48,4.48 0 0 1 -4.8,4c-7.74,0.88 -15.33,-2.17 -22.53,-5.16l-14,-5.82c-1.64,-0.68 -3.29,-1.37 -4.86,-2.21a26.63,26.63 0 0 1 -7.79,-6.37a3.55,3.55 0 0 1 -0.91,-1.65c-0.26,-1.76 1.8,-2.81 3.11,-4a6.23,6.23 0 0 0 1,-1.22c1.55,-2.34 1.7,-5.57 2.63,-8.33c2.2,-6.55 9,-10.77 11.4,-17.16c0.13,-0.35 0.25,-0.7 0.35,-1.06" fill="#3182ce" id="svg_33"/>
  <path d="m423.51,742.87a19,19 0 0 1 -0.56,4.44a4.48,4.48 0 0 1 -4.8,4c-7.74,0.88 -15.33,-2.17 -22.53,-5.16l-14,-5.82c-1.64,-0.68 -3.29,-1.37 -4.86,-2.21a26.63,26.63 0 0 1 -7.79,-6.37a3.55,3.55 0 0 1 -0.91,-1.65c-0.26,-1.76 1.8,-2.81 3.11,-4a6.23,6.23 0 0 0 1,-1.22c3.86,0.83 8.65,3.26 11.6,4.2a35.22,35.22 0 0 1 8.44,3.53c3.68,2.36 6.33,6 9.45,9s7.15,5.73 11.5,5.36a19,19 0 0 0 6.54,-2.26l3.81,-1.84z" opacity="0.1" id="svg_34"/>
  <path d="m407.12,600.76a4.63,4.63 0 0 1 -1.7,5c-1.31,0.81 -3,0.7 -4.3,1.58c-1.61,1.13 -1.84,3.37 -2.12,5.31c-1,6.67 -4.31,12.72 -7.14,18.85s-5.22,12.82 -4.18,19.48c0.71,4.52 2.93,9.34 0.85,13.41c-0.51,1 -1.27,1.89 -1.85,2.86c-2.85,4.76 -1.23,10.79 -1.34,16.33a3.23,3.23 0 0 1 -0.39,1.77a4.89,4.89 0 0 1 -1.58,1.22a8.38,8.38 0 0 0 -3.41,6.43a24.57,24.57 0 0 0 0.9,7.46a4.44,4.44 0 0 0 1.23,2.6a4.6,4.6 0 0 0 2.69,0.76a59.84,59.84 0 0 1 18.26,4.44c3.79,1.58 7.47,3.56 11.5,4.32a3,3 0 0 0 2.36,-0.25a3.25,3.25 0 0 0 1,-1.73c1.55,-5.1 3.12,-10.36 2.59,-15.66c-0.23,-2.28 -0.84,-4.51 -1,-6.79c-0.7,-9 5.39,-17.12 7.32,-26c0.87,-4 0.87,-8.14 1.49,-12.18c1.68,-11.07 7.78,-21 10.13,-31.95a34.73,34.73 0 0 1 1.52,-6c1.75,-4.24 5.8,-7.68 5.89,-12.27a4.78,4.78 0 0 0 -0.76,-2.86a6.48,6.48 0 0 0 -3.57,-2a121.87,121.87 0 0 0 -16.63,-3.32a31.35,31.35 0 0 0 -7.78,-0.54a22.9,22.9 0 0 0 -9.52,3.36c-3.78,2.36 -1.3,2.93 -0.46,6.37z" fill="#454b69" id="svg_35"/>
  <path d="m407.12,600.76a4.63,4.63 0 0 1 -1.7,5c-1.31,0.81 -3,0.7 -4.3,1.58c-1.61,1.13 -1.84,3.37 -2.12,5.31c-1,6.67 -4.31,12.72 -7.14,18.85s-5.22,12.82 -4.18,19.48c0.71,4.52 2.93,9.34 0.85,13.41c-0.51,1 -1.27,1.89 -1.85,2.86c-2.85,4.76 -1.23,10.79 -1.34,16.33a3.23,3.23 0 0 1 -0.39,1.77a4.89,4.89 0 0 1 -1.58,1.22a8.38,8.38 0 0 0 -3.41,6.43a24.57,24.57 0 0 0 0.9,7.46a4.44,4.44 0 0 0 1.23,2.6a4.6,4.6 0 0 0 2.69,0.76a59.84,59.84 0 0 1 18.26,4.44c3.79,1.58 7.47,3.56 11.5,4.32a3,3 0 0 0 2.36,-0.25a3.25,3.25 0 0 0 1,-1.73c1.55,-5.1 3.12,-10.36 2.59,-15.66c-0.23,-2.28 -0.84,-4.51 -1,-6.79c-0.7,-9 5.39,-17.12 7.32,-26c0.87,-4 0.87,-8.14 1.49,-12.18c1.68,-11.07 7.78,-21 10.13,-31.95a34.73,34.73 0 0 1 1.52,-6c1.75,-4.24 5.8,-7.68 5.89,-12.27a4.78,4.78 0 0 0 -0.76,-2.86a6.48,6.48 0 0 0 -3.57,-2a121.87,121.87 0 0 0 -16.63,-3.32a31.35,31.35 0 0 0 -7.78,-0.54a22.9,22.9 0 0 0 -9.52,3.36c-3.78,2.36 -1.3,2.93 -0.46,6.37z" opacity="0.05" id="svg_36"/>
  <polygon points="387.55 751.47 379.02 751.47 373.44 636.83 373.05 630.31 380.3 627.76 380.79 634.69 387.55 751.47" fill="#565661" id="svg_37"/>
  <polygon points="380.79 634.69 373.44 636.83 373.05 630.31 380.3 627.76 380.79 634.69" opacity="0.1" id="svg_38"/>
  <polygon points="494.58 775.72 480.51 777.42 415.69 630.31 398.21 629.03 367.51 637.99 361.54 813.14 347.47 813.14 353.01 631.59 319.32 632.45 259.2 782.11 246.41 782.11 309.64 607.2 312.08 600.46 406.31 597.23 429.8 610.4 430.1 611.16 494.58 775.72" fill="#565661" id="svg_39"/>
  <path d="m430.1,611.16c-20.25,6.1 -41.27,12.76 -41.27,12.76s-19.17,6.69 -27.29,0a12.27,12.27 0 0 0 -3.39,-1.87a16.7,16.7 0 0 0 3.39,1.87l-51.9,-16.73l2.43,-6.73l94.24,-3.23l23.49,13.17l0.3,0.76z" opacity="0.1" id="svg_40"/>
  <path d="m334.25,582.13l38.37,-8.56s91.68,17.06 98.5,23.88c0,0 -73.34,14.92 -81.44,20s-56.29,10.73 -55.43,-35.32z" fill="#fff" id="svg_41"/>
  <path d="m317.75,486.24c-3,9.51 -11.19,18.08 -21.16,18.49a3.69,3.69 0 0 1 -2.11,-0.38c-1.25,-0.78 -1.28,-2.61 -0.77,-4s1.4,-2.64 1.54,-4.1a2.68,2.68 0 0 0 -0.06,-0.89c-0.26,-1.19 -1.23,-2.25 -2.37,-2a4,4 0 0 0 0.85,-5.31a12,12 0 0 1 -1.22,-1.64c-0.83,-1.7 0.46,-3.61 1,-5.43c1.11,-4 -1.71,-8 -1.94,-12.17c-0.2,-3.73 1.69,-7.24 2.16,-10.94c0.75,-6 -2.23,-11.75 -2.58,-17.74c-0.24,-4.18 0.79,-8.32 1.94,-12.35c1,-3.6 2.13,-7.24 2.2,-11c0,-2.73 -0.47,-5.43 -0.6,-8.15a14.19,14.19 0 0 1 1.31,-7.24a5.79,5.79 0 0 1 3.29,-2.81c3.28,-1.1 5.43,0.61 5.91,3.72c0.8,5.29 0.34,10.69 1.39,16a75,75 0 0 0 4.39,14.49c1.77,4.22 3.92,8.3 5.28,12.67a69.8,69.8 0 0 1 2.19,11c1.34,9.99 2.39,20.27 -0.64,29.78z" fill="#3182ce" id="svg_42"/>
  <path d="m545.51,728.28a15.51,15.51 0 0 1 -10.93,6.44c-4.34,0.54 -8.85,-0.55 -13.06,0.64a4,4 0 0 0 -3,2.31a24.54,24.54 0 0 0 -0.19,2.45c-0.49,2.67 -4,3.27 -6.73,3.25l-11.26,-0.07c-2.34,0 -4.93,-0.13 -6.61,-1.75a4.92,4.92 0 0 1 -0.1,-6.48a2.22,2.22 0 1 0 -1.44,-4.2a11.94,11.94 0 0 1 0.21,-4.41c0,-4.18 1,-11.18 3.94,-14.45c3.61,-4.07 9.87,-9.33 15.32,-10.42a12,12 0 0 1 10.38,2.98c2.58,2.4 4.46,6.16 8,6.58c1.93,0.24 3.79,-0.67 5.7,-1a10.61,10.61 0 0 1 10.81,5.71a11.26,11.26 0 0 1 1,3.13a13,13 0 0 1 -2.04,9.29z" fill="#3182ce" id="svg_43"/>
  <path d="m545.51,728.28a15.51,15.51 0 0 1 -10.93,6.44c-4.34,0.54 -8.85,-0.55 -13.06,0.64a4,4 0 0 0 -3,2.31a24.54,24.54 0 0 0 -0.19,2.45c-0.49,2.67 -4,3.27 -6.73,3.25l-11.26,-0.07c-2.34,0 -4.93,-0.13 -6.61,-1.75a4.92,4.92 0 0 1 -0.1,-6.48c6.5,-0.27 12.89,0 19.37,-1.34c2.63,-0.53 5.22,-1.23 7.88,-1.6c5.76,-0.82 11.89,-0.12 17.18,-2.56c4.41,-2 7.57,-6.07 9.44,-10.61a13,13 0 0 1 -1.99,9.32z" opacity="0.1" id="svg_44"/>
  <path d="m515.8,712.47c-4,3.1 -8.69,5.52 -13.73,5.78s-10.39,-2 -12.86,-6.38c-3.61,-6.43 -0.41,-15.37 -4.83,-21.27c-1.38,-1.85 -3.37,-3.16 -4.83,-4.95s-2.3,-4.48 -1,-6.38c-1.57,0.6 -3.23,-0.92 -3.69,-2.54s-0.17,-3.36 -0.45,-5c-0.73,-4.35 -5,-7.14 -7.05,-11s-1.77,-8.87 -2,-13.44a51,51 0 0 0 -11.8,-30.35c-1.36,-1.62 -3.1,-3.27 -5.22,-3.19c0.37,-3.66 -2.07,-7.16 -5.23,-9s-6.92,-2.46 -10.58,-2.82c-36.93,-3.64 -75.41,10.09 -110.67,-1.46c-9.81,-3.21 -19.27,-8.58 -25.27,-17a29.72,29.72 0 0 1 -5.29,-22.48l0,-0.14c1.39,-7.1 5.14,-8.85 11.35,-12.09a136.24,136.24 0 0 1 22.39,-9.39c15,-4.69 31.15,-6.38 46.63,-2.94c7.23,1.62 14.2,4.3 21.44,5.87c2.85,0.62 5.72,1.06 8.61,1.43c4.49,0.56 9,0.93 13.52,1.45a204.53,204.53 0 0 1 42.46,9.55c5.13,1.74 10.26,3.73 14.67,6.88a32.5,32.5 0 0 1 13.06,21.5c0.42,2.94 0.43,6 1.07,8.85a45,45 0 0 0 2.4,7a465.63,465.63 0 0 1 20.89,65a15.79,15.79 0 0 0 1.67,4.7c1.28,2.07 3.48,3.46 4.77,5.53c3,4.88 0.11,11.69 2.77,16.77c0.92,1.76 2.45,3.15 3.37,4.91c2.98,5.7 -1.45,12.63 -6.57,16.6z" fill="#454b69" id="svg_45"/>
  <path d="m464.7,597.57a16.5,16.5 0 0 0 3.63,-4a7.46,7.46 0 0 0 1.1,-5.17a14.79,14.79 0 0 1 -3.89,12.72c-2.51,2.57 -7.22,5.09 -10.89,4.21c0.52,-2.94 7.72,-5.76 10.05,-7.76z" opacity="0.1" id="svg_46"/>
  <path d="m402.22,547.73a6.71,6.71 0 0 1 -4.44,4.58a18.5,18.5 0 0 1 -6.59,0.77l-2,0c-26.24,-0.58 -52.76,-6.4 -78.39,-0.85a56.76,56.76 0 0 0 -9.06,2.67a40.9,40.9 0 0 0 -10.41,6l0,-0.14c1.39,-7.1 5.14,-8.85 11.35,-12.09a136.24,136.24 0 0 1 22.36,-9.3c15,-4.69 31.15,-6.38 46.63,-2.94c7.23,1.62 14.2,4.3 21.44,5.87c2.85,0.62 5.72,1.06 8.61,1.43a6.91,6.91 0 0 1 0.5,4z" opacity="0.1" id="svg_47"/>
  <path d="m402.22,546.3a6.7,6.7 0 0 1 -4.44,4.59a18.27,18.27 0 0 1 -6.59,0.76l-2,0c-26.24,-0.58 -52.76,-6.4 -78.39,-0.85a57.78,57.78 0 0 0 -9.06,2.66a41.2,41.2 0 0 0 -10.85,6.4q-1.15,-3.16 -2.29,-6.33c-0.92,-2.52 2,-3.08 2.56,-5.34c0.37,-1.53 -0.26,-3.27 -0.58,-4.9a8.55,8.55 0 0 1 -0.16,-1.21c-0.18,-3.61 1.11,-5.69 4.07,-7.64c8.78,-5.8 19.49,-9.78 29.51,-12.77a73,73 0 0 1 16.4,-3.18c7.88,-0.46 15.75,1 23.42,2.85c9.43,2.33 18.76,5.41 27.12,10.34c4.11,2.42 8.1,5.43 10.29,9.68a7.6,7.6 0 0 1 0.99,4.94z" fill="#a26565" id="svg_48"/>
  <path d="m317.75,486.24c-3,9.51 -11.19,18.08 -21.16,18.49a3.69,3.69 0 0 1 -2.11,-0.38c-1.25,-0.78 -1.28,-2.61 -0.77,-4s1.4,-2.64 1.54,-4.1a2.68,2.68 0 0 0 -0.06,-0.89c5.29,-7.46 10.42,-15 12.45,-23.83a12.74,12.74 0 0 0 0.37,-4.67c-0.27,-1.8 -1.18,-3.43 -1.68,-5.17c-0.88,-3.08 -0.47,-6.34 -0.22,-9.53a88,88 0 0 0 -6.84,-41.14c-1.35,-3.12 -2.89,-6.28 -3.36,-9.61a5.79,5.79 0 0 1 3.29,-2.81c3.28,-1.1 5.43,0.61 5.91,3.72c0.8,5.29 0.34,10.69 1.39,16a75,75 0 0 0 4.39,14.49c1.77,4.22 3.92,8.3 5.28,12.67a69.8,69.8 0 0 1 2.19,11c1.37,9.97 2.42,20.25 -0.61,29.76z" opacity="0.1" id="svg_49"/>
  <path d="m402.22,546.3a6.7,6.7 0 0 1 -4.44,4.59a18.27,18.27 0 0 1 -6.59,0.76l-2,0a43.57,43.57 0 0 0 -29,-7c-3.26,0.39 -6.52,1.15 -9.78,0.85c-6.59,-0.6 -11.93,-5.34 -17.8,-8.37a37.38,37.38 0 0 0 -41.43,5.62l-0.57,0.5a8.55,8.55 0 0 1 -0.16,-1.21c-0.18,-3.61 1.11,-5.69 4.07,-7.64c8.78,-5.8 19.49,-9.78 29.51,-12.77a73,73 0 0 1 16.4,-3.18c7.88,-0.46 15.75,1 23.42,2.85c9.43,2.33 18.76,5.41 27.12,10.34c4.11,2.42 8.1,5.43 10.29,9.68a7.6,7.6 0 0 1 0.96,4.98z" opacity="0.1" id="svg_50"/>
  <path d="m424.65,436.76l-0.14,0.36c-2.24,5.81 -6.36,10.72 -9,16.38c-3.33,7.17 -4.15,15.21 -4.89,23.09c-0.64,6.75 -1.27,13.54 -0.76,20.31c1.28,16.68 9.43,32.5 11.61,48.86a54.31,54.31 0 0 1 0.41,11.41c-0.18,2.41 -0.62,5 -2.22,6.78s-4.71,2.48 -6.43,0.77c0.77,-1.47 1.55,-2.93 2.33,-4.4c-4.57,-3.55 -11.45,-1 -16.79,-3.22c-2.35,-1 -4.23,-2.8 -6.2,-4.41a43.48,43.48 0 0 0 -32.39,-9.46c-3.26,0.4 -6.52,1.16 -9.78,0.86c-6.59,-0.61 -11.93,-5.34 -17.8,-8.37a37.4,37.4 0 0 0 -41.43,5.61c-1.4,1.3 -3.28,2.82 -5,2a4.16,4.16 0 0 1 -1.55,-1.69c-6.55,-11.19 -1.73,-25.62 5.27,-36.52s16.27,-20.95 19.15,-33.55a12.53,12.53 0 0 0 0.37,-4.67c-0.27,-1.8 -1.18,-3.43 -1.68,-5.17c-0.88,-3.08 -0.47,-6.34 -0.22,-9.53a88,88 0 0 0 -6.84,-41.14c-1.6,-3.73 -3.5,-7.51 -3.5,-11.56c0,-6.38 4.57,-11.67 8.35,-16.8c4.35,-5.9 8,-12.43 13.51,-17.28c5.22,-4.61 12.78,-7.43 19.24,-5.09a119.94,119.94 0 0 1 33.56,-3.24c3.9,0.18 7.93,0.59 11.35,2.48c3.66,2 6.29,5.56 9.89,7.69c2.63,1.57 5.66,2.31 8.52,3.41a35.21,35.21 0 0 1 18.36,16.45c4,7.75 5,16.66 5.88,25.34c0.86,8.11 1.66,16.61 -1.18,24.3z" fill="#3182ce" id="svg_51"/>
  <path d="m409.86,496.9c1.28,16.68 9.43,32.5 11.61,48.86c-4.36,-3.72 -10.41,-7.4 -11.24,-11.69c-0.9,-4.64 -3.78,-10.72 -4.26,-15.41s2.81,-10.42 -0.64,-13.64c-1.68,-1.57 2.79,-1.13 1.15,-2.74c-3.69,-3.59 -4.6,-9.12 -4.83,-14.25c-0.39,-9.08 0.76,-18.26 -0.91,-27.19c-1,-5.51 -3.09,-10.76 -4.76,-16.11c-1.94,-6.23 -3.34,-12.61 -4.74,-19a133.12,133.12 0 0 1 -3,-17.26c-0.43,-5 -0.23,-10.3 2,-14.86s6.74,-8.26 11.8,-8.19c16.92,0.22 14,23.16 17.72,33.76c1.49,4.22 3.5,8.3 4.31,12.7a33.66,33.66 0 0 1 0.48,5.22c-2.24,5.81 -6.36,10.72 -9,16.38c-3.33,7.17 -4.15,15.21 -4.89,23.09c-0.68,6.77 -1.31,13.56 -0.8,20.33z" opacity="0.1" id="svg_52"/>
  <path d="m420.86,418.92c1.49,4.22 3.5,8.3 4.31,12.7c1.35,7.37 -0.74,15.2 1.53,22.34a38.92,38.92 0 0 1 1.48,4.67c0.39,2.27 -0.06,4.59 -0.06,6.9c0,3.72 1.17,7.32 2.21,10.89a194.63,194.63 0 0 1 6.95,37.15a46.59,46.59 0 0 0 1.59,10a33.21,33.21 0 0 1 1.08,3.38a17.48,17.48 0 0 1 0.19,4.63c-0.27,4.9 -0.82,9.82 -0.27,14.7s2.33,9.83 6,13.1c-3.28,0.71 -6.75,1.42 -9.95,0.37c-4.5,-1.47 -7.2,-6 -9.49,-10.12c-2.9,-5.26 -13.92,-10 -15.06,-15.91c-0.89,-4.63 -3.77,-10.71 -4.25,-15.41s2.8,-10.41 -0.65,-13.63c-1.67,-1.57 2.8,-1.14 1.15,-2.74c-3.68,-3.59 -4.59,-9.12 -4.82,-14.26c-0.39,-9.07 0.75,-18.25 -0.91,-27.18c-1,-5.51 -3.09,-10.76 -4.76,-16.12c-1.94,-6.22 -3.34,-12.6 -4.74,-19a131.73,131.73 0 0 1 -3,-17.26c-0.43,-5 -0.24,-10.31 2,-14.87s6.75,-8.25 11.8,-8.19c16.85,0.31 13.95,23.26 17.67,33.86z" fill="#3182ce" id="svg_53"/>
  <path d="m372.64,422.83c1.58,1.85 3.61,3.88 6,3.52a1.3,1.3 0 0 1 -1.77,0.42a3.8,3.8 0 0 1 -1.33,-1.53l-3.42,-5.77c-0.45,-0.75 -3.55,-5.12 -4.31,-2.6c-0.3,1.07 4.06,5.06 4.83,5.96z" opacity="0.1" id="svg_54"/>
  <path d="m370.8,437.22a7.62,7.62 0 0 0 -2.23,-5a12.5,12.5 0 0 0 -4.13,-2.49c-3.75,-1.54 -8.19,-2.78 -12.26,-2.58c1.48,2.16 6.23,3.45 8.61,4.67q5.06,2.61 10.01,5.4z" opacity="0.1" id="svg_55"/>
  <path d="m381.45,478.18c-0.69,5.12 -4.88,9 -9.12,12s-9,5.58 -11.77,9.92c-1.92,3 -2.78,6.48 -4.41,9.61c-1.8,3.45 -4.49,6.35 -6.64,9.59s-3.83,7.11 -3.17,10.95a1.29,1.29 0 0 0 0.46,0.92a1.31,1.31 0 0 0 1.27,-0.14c4.36,-2.28 6.08,-7.49 7.91,-12a138.65,138.65 0 0 1 6.48,-13.32c1.08,-2 2.27,-4.18 4.28,-5.29a37.55,37.55 0 0 1 4.22,-1.47a14.19,14.19 0 0 0 5.21,-4.09a34.34,34.34 0 0 0 8,-23.31c-0.06,-1.79 -0.16,-10.41 -2.85,-7.75s0.59,10.9 0.13,14.38z" opacity="0.1" id="svg_56"/>
  <path d="m388.04,281.81c8.6,3.75 16,12 15.73,21.35c-0.23,9.82 -8.45,19.07 -5.62,28.48c1.64,5.46 6.58,9.12 10.49,13.27c14.89,15.76 14.86,43.27 -0.08,59c-5.72,6 -13.07,10.27 -19.12,16c-21.33,20.1 -22.24,54.87 -10.82,81.86a133.14,133.14 0 0 1 -26.62,3c-4.19,0.05 -9.32,-0.71 -10.84,-4.62c-1.4,-3.61 1,-8.49 -1.76,-11.16c-1.3,-1.25 -3.25,-1.42 -5,-1.71c-11.26,-1.82 -20.5,-10.81 -24.72,-21.4s-4,-22.51 -1.58,-33.65c1.72,-8.05 4.41,-16.91 0.42,-24.11c-5,-9.06 -19.38,-12.88 -19.16,-23.24c0.18,-8.49 10.19,-12.62 15.87,-18.93c10.48,-11.62 5.49,-29.65 5.47,-45.31c0,-13.78 4.82,-28 15.08,-37.18c15.26,-13.77 44.65,-9.3 62.26,-1.65z" fill="#a26565" id="svg_57"/>
  <g opacity="0.1" id="svg_58">
   <path d="m310.16,397.85c-4.39,-7.92 -15.92,-11.84 -18.6,-19.63a11.09,11.09 0 0 0 -2.16,6.26c-0.22,10.36 14.14,14.18 19.16,23.25a18.89,18.89 0 0 1 2,10.42c1.58,-6.96 2.97,-14.22 -0.4,-20.3z" id="svg_59"/>
   <path d="m399.3,318.82c1.8,-5.25 4.41,-10.55 4.54,-16a15,15 0 0 0 -0.05,-1.77c-2.01,5.99 -5.09,11.86 -4.49,17.77z" id="svg_60"/>
   <path d="m311.88,346.79c3.44,-10.87 0.47,-24.35 0.46,-36.41c0,-1.46 0.06,-2.93 0.17,-4.39a57.74,57.74 0 0 0 -1.78,14.26c0.02,8.61 1.53,17.95 1.15,26.54z" id="svg_61"/>
   <path d="m410.23,393.68c-5.72,6 -13.07,10.27 -19.12,16c-10.8,10.17 -16.35,24.1 -17.74,38.87c2.58,-11 7.79,-21.13 16.14,-29c6,-5.7 13.4,-9.95 19.12,-16a42.49,42.49 0 0 0 11.15,-27.06a40.61,40.61 0 0 1 -9.55,17.19z" id="svg_62"/>
   <path d="m353.67,494.51c-4.19,0 -9.32,-0.72 -10.84,-4.63c-1.4,-3.6 1,-8.48 -1.76,-11.16c-1.3,-1.25 -3.26,-1.42 -5,-1.71c-11.25,-1.81 -20.49,-10.81 -24.71,-21.39c-3.11,-7.82 -3.78,-16.35 -3,-24.77c-0.08,0.33 -0.15,0.66 -0.22,1c-2.38,11.14 -2.63,23.07 1.58,33.66s13.46,19.58 24.71,21.39c1.78,0.29 3.74,0.47 5,1.71c2.79,2.68 0.36,7.56 1.76,11.16c1.52,3.91 6.65,4.68 10.84,4.63a133.23,133.23 0 0 0 26.62,-3a89.38,89.38 0 0 1 -3.23,-8.93a132.74,132.74 0 0 1 -21.75,2.04z" id="svg_63"/>
  </g>
  <path d="m386.42,450.9c2.47,1.86 5.15,-5.23 3.62,-7c-0.41,0.46 -4,6.74 -3.62,7z" opacity="0.1" id="svg_64"/>
  <path d="m396.95,579.24c2.91,-1 6,-2 7.9,-4.4c1.57,-1.93 2.86,-9.59 -0.46,-5.92c-2.82,3.13 -4.15,7.3 -7.44,10.32z" opacity="0.1" id="svg_65"/>
  <path d="m426.58,571.21c-0.35,2.36 -1,4.81 -2.67,6.51c-0.31,0.32 -1,0.52 -1.09,0.09a25.29,25.29 0 0 0 5.16,-3.64c3.38,-3.35 3.84,-11.6 -1.31,-13.79c-0.05,3.62 0.46,7.19 -0.09,10.83z" opacity="0.1" id="svg_66"/>
  <path d="m462.15,556.34s-28.38,-11.15 -38.64,-10s11.62,17.32 11.62,17.32l13.08,8.82s8,-3 8.53,-3.23s5.41,-12.91 5.41,-12.91z" fill="#454b69" id="svg_67"/>
  <path d="m266.88,436.72s21.32,-12.36 49.46,3s32.83,105.75 32.83,105.75s-11.51,92.1 32.87,71.62c0,0 81,-25.15 89.11,-19.61c0,0 7.68,0 -7.67,3.41s-74.62,22.17 -74.62,22.17s-19.17,6.7 -27.29,0s-31.13,0.86 -34.12,-45.2a801,801 0 0 0 -10.66,-86.56l-7.91,-23.45l-42,-31.13z" fill="#565661" id="svg_68"/>
  <path d="m264.32,579.14s9.38,-93.38 -6,-127.07c-13.38,-29.36 38.36,-15.63 51.86,-11.63a9.83,9.83 0 0 1 5.18,3.7c8,11.25 36.7,56.34 28.24,116.67c0,0 -3.41,53.73 17.91,62.25l-65.69,-21.16c-5.33,-1.72 -10.74,-3.15 -16.2,-4.39c-6.96,-1.58 -18.3,-6.07 -15.3,-18.37z" fill="#fff" id="svg_69"/>
  <path d="m666.9,412.08s-4.59,21.38 15.84,23.91l1.27,-2.37s-15.84,-14.89 -17.11,-21.54z" fill="#6415ff" id="svg_70"/>
  <path d="m690.5,433.45l-4.75,1l-0.47,0.11s-12.68,-10.29 -12.52,-33.26a58.25,58.25 0 0 0 6,9.58c5.08,6.69 10.79,15.52 11.74,22.57z" fill="#6415ff" id="svg_71"/>
  <path d="m692.11,435.66a3,3 0 0 1 -2.56,0.33c-12.2,-2.85 -8.07,-42.59 -8.07,-42.59c0.67,0.31 1.41,5.36 4.21,11.89c4.93,11.47 10.35,27.49 6.42,30.37z" fill="#6415ff" id="svg_72"/>
  <path d="m719.16,412.08s0.79,21.38 -19.64,23.91l-1.26,-2.37s19.63,-14.89 20.9,-21.54z" fill="#6415ff" id="svg_73"/>
  <path d="m713.3,401.31c0.16,22.97 -16.26,33.26 -16.26,33.26l-0.47,-0.11l-4.75,-1c0.94,-7.05 6.66,-15.92 11.67,-22.56a51.49,51.49 0 0 1 9.81,-9.59z" fill="#6415ff" id="svg_74"/>
  <path d="m696.44,433.57a7.57,7.57 0 0 1 -2.72,2.08l0,0a5,5 0 0 1 -1,0.33c-3,0.7 -4,-1.46 -3.88,-5.14c0.28,-6.55 4.4,-17.9 8.09,-26.39c2.66,-6.12 7,-10.76 7.66,-11.06c0,0.01 -0.18,30.95 -8.15,40.18z" fill="#6415ff" id="svg_75"/>
  <path d="m693.04,379.46s-13.62,48.3 -1.9,55.58s4.9,-51.31 1.9,-55.58z" fill="#6415ff" id="svg_76"/>
  <path d="m666.9,412.08s-4.59,21.38 15.84,23.91l1.27,-2.37s-15.84,-14.89 -17.11,-21.54z" opacity="0.1" id="svg_77"/>
  <path d="m690.5,433.45l-4.75,1l-0.47,0.11s-12.68,-10.29 -12.52,-33.26a58.25,58.25 0 0 0 6,9.58c5.08,6.69 10.79,15.52 11.74,22.57z" opacity="0.1" id="svg_78"/>
  <path d="m692.11,435.66a3,3 0 0 1 -2.56,0.33c-12.2,-2.85 -8.07,-42.59 -8.07,-42.59c0.67,0.31 1.41,5.36 4.21,11.89c4.93,11.47 10.35,27.49 6.42,30.37z" opacity="0.1" id="svg_79"/>
  <path d="m719.16,412.08s0.79,21.38 -19.64,23.91l-1.26,-2.37s19.63,-14.89 20.9,-21.54z" opacity="0.1" id="svg_80"/>
  <path d="m713.3,401.31c0.16,22.97 -16.26,33.26 -16.26,33.26l-0.47,-0.11l-4.75,-1c0.94,-7.05 6.66,-15.92 11.67,-22.56a51.49,51.49 0 0 1 9.81,-9.59z" opacity="0.1" id="svg_81"/>
  <path d="m696.44,433.57a7.57,7.57 0 0 1 -2.72,2.08l0,0a5,5 0 0 1 -1,0.33c-3,0.7 -4,-1.46 -3.88,-5.14c0.28,-6.55 4.4,-17.9 8.09,-26.39c2.66,-6.12 7,-10.76 7.66,-11.06c0,0.01 -0.18,30.95 -8.15,40.18z" opacity="0.1" id="svg_82"/>
  <path d="m693.04,379.46s-13.62,48.3 -1.9,55.58s4.9,-51.31 1.9,-55.58z" opacity="0.1" id="svg_83"/>
  <path d="m666.9,412.08s-2.69,21.38 17.74,23.91l1.27,-2.37s-17.74,-14.89 -19.01,-21.54z" fill="#3182ce" id="svg_84"/>
  <path d="m692.4,433.45l-4.75,1l-0.47,0.11s-14.58,-10.29 -14.42,-33.26c0,0 3.74,4 7.95,9.58c5.03,6.69 10.74,15.52 11.69,22.57z" fill="#3182ce" id="svg_85"/>
  <path d="m692.4,433.45l-4.75,1c-4.5,-3.95 -6.29,-14.27 -6.94,-23.57c5.03,6.69 10.74,15.52 11.69,22.57z" opacity="0.1" id="svg_86"/>
  <path d="m694.04,435.66a3,3 0 0 1 -2.56,0.33c-12.2,-2.85 -10,-42.59 -10,-42.59c0.67,0.31 3.31,5.36 6.11,11.89c4.93,11.47 10.33,27.49 6.45,30.37z" fill="#3182ce" id="svg_87"/>
  <path d="m719.16,412.08s2.69,21.38 -17.74,23.91l-1.26,-2.37s17.73,-14.89 19,-21.54z" fill="#3182ce" id="svg_88"/>
  <path d="m714.3,402.31c0.16,23 -14.41,33.26 -14.41,33.26l-0.47,-0.11l-4.75,-1c0.94,-7.05 6.66,-15.92 11.67,-22.56c4.23,-5.59 7.96,-9.59 7.96,-9.59z" fill="#3182ce" id="svg_89"/>
  <path fill="#3182ce" d="m705.34,410.89c-0.61,8.67 -2.19,18.22 -6,22.69a9.06,9.06 0 0 1 -0.87,0.88l-4.75,-1c0.89,-7.06 6.61,-15.89 11.62,-22.57z" opacity="0.1" id="svg_90"/>
  <path d="m698.34,433.57a7.57,7.57 0 0 1 -2.72,2.08l0,0a5,5 0 0 1 -1,0.33c-3,0.7 -4.05,-1.46 -3.88,-5.14c0.28,-6.55 4.4,-17.9 8.09,-26.39c2.66,-6.12 5.12,-10.76 5.76,-11.06c0,0.01 1.72,30.95 -6.25,40.18z" fill="#3182ce" id="svg_91"/>
  <path d="m694.04,435.66a3.35,3.35 0 0 1 -1.93,-0.62c-5.74,-3.57 -5.85,-17 -4.49,-29.75c4.9,11.47 10.3,27.49 6.42,30.37z" opacity="0.1" id="svg_92"/>
  <path d="m698.34,433.57c-0.66,1.42 -1.55,2.18 -2.72,2.08l0,0a3.92,3.92 0 0 1 -1.63,-0.62a8.67,8.67 0 0 1 -3.24,-4.19c0.28,-6.55 4.4,-17.9 8.09,-26.39c1.31,11.8 1.75,24.29 -0.5,29.12z" opacity="0.1" id="svg_93"/>
  <path d="m692.04,384.46s-11.72,48.3 0,55.58s3,-51.31 0,-55.58z" fill="#3182ce" id="svg_94"/>
  <polygon points="711.41 437.42 710.59 441.69 707.61 457.37 679.25 457.37 676.27 441.69 675.45 437.42 711.41 437.42" fill="#565661" id="svg_95"/>
  <polygon points="711.41 437.42 710.59 441.69 676.27 441.69 675.45 437.42 711.41 437.42" opacity="0.1" id="svg_96"/>
  <rect x="668.65" y="432.67" width="48.77" height="8.08" fill="#565661" id="svg_97"/>
  <path d="m552.77,448.18l-26.73,2.15l-38.09,-2.48l0.66,-0.06l35.28,-3.4c8.08,-3 2.48,-20.45 2.48,-20.45l27,1.38l2.15,0.11c9.61,22.42 -2.75,22.75 -2.75,22.75z" fill="#d1d9ec" id="svg_98"/>
  <path d="m552.77,448.18l-26.73,2.15l-38.09,-2.48l0.66,-0.06l38.5,1.38l25.8,-2.8c7.32,-1.93 3.13,-14.64 0.49,-21.05l2.15,0.11c9.58,22.42 -2.78,22.75 -2.78,22.75z" opacity="0.1" id="svg_99"/>
  <path d="m599.54,289.38l-8.17,117.19l-1.07,15.39a6.68,6.68 0 0 1 -6.71,6.21l-2.48,0l-123,-0.75a3.45,3.45 0 0 1 -3.41,-3.79l1.06,-10.39l8.65,-85.06a7.13,7.13 0 0 1 4.73,-6l117.23,-40.59c4,-1.38 8,-0.89 10.59,1.22a7.48,7.48 0 0 1 2.58,6.57z" fill="#4c4c56" id="svg_100"/>
  <path d="m591.37,406.57l-1.07,15.39a6.68,6.68 0 0 1 -6.71,6.21l-2.48,0l-123,-0.75a3.45,3.45 0 0 1 -3.41,-3.79l1.06,-10.39l135.61,-6.67z" fill="#dfe6f5" id="svg_101"/>
  <ellipse cx="508.91" cy="419.33" rx="1.65" ry="3.3" fill="#fff" id="svg_102"/>
  <path d="m569.12,452.04s33.64,-12.7 42.71,-3.46c0,0 1.48,2.8 -4.62,3.46l-24.65,2s-10.14,0.97 -13.44,-2z" fill="#d1d9ec" id="svg_103"/>
  <path d="m570.04,448.74c6.61,-2.7 26.5,-9.69 39.23,-2c0,0 -14.09,-1.56 -21.82,2.91s-18.31,2.35 -18.31,2.35l-0.15,-0.28a2.13,2.13 0 0 1 1.05,-2.98z" fill="#dfe6f5" id="svg_104"/>
  <path d="m599.54,289.38l-9.24,132.6a6.68,6.68 0 0 1 -6.71,6.21l-2.48,0a23.49,23.49 0 0 0 4.3,-5.56s9.07,-133.22 9.73,-136.52a6.82,6.82 0 0 1 1.83,-3.26a7.48,7.48 0 0 1 2.57,6.53z" fill="#dfe6f5" id="svg_105"/>
  <path d="m599.54,289.38l-9.24,132.6a6.68,6.68 0 0 1 -6.71,6.21l-2.48,0a23.49,23.49 0 0 0 4.3,-5.56s9.07,-133.22 9.73,-136.52a6.82,6.82 0 0 1 1.83,-3.26a7.48,7.48 0 0 1 2.57,6.53z" opacity="0.1" id="svg_106"/>
  <ellipse cx="148.97" cy="730.07" rx="97.44" ry="15.65" fill="#7b341e" opacity="0.1" id="svg_107"/>
  <rect x="145.83" y="430.26" width="6.27" height="141.17" fill="#535461" id="svg_108"/>
  <path d="m191.51,571l-0.39,6.36l-0.56,9l-0.23,3.74l-0.55,9l-0.24,3.74l-0.56,9l-6.32,102.07a17.3,17.3 0 0 1 -17.26,16.22l-32.87,0a17.28,17.28 0 0 1 -17.24,-16.22l-6.34,-102.14l-0.55,-9l-0.23,-3.74l-0.57,-9l-0.23,-3.74l-0.55,-9l-0.4,-6.36a9,9 0 0 1 8.94,-9.51l67.22,0a9,9 0 0 1 8.93,9.58z" fill="#565661" id="svg_109"/>
  <polygon points="191.12 577.36 190.56 586.33 107.38 586.33 106.82 577.36 191.12 577.36" fill="#9d9cb5" id="svg_110"/>
  <polygon points="190.33 590.08 189.78 599.06 108.17 599.06 107.61 590.08 190.33 590.08" fill="#9d9cb5" id="svg_111"/>
  <polygon points="189.54 602.8 188.98 611.77 108.95 611.77 108.4 602.8 189.54 602.8" fill="#9d9cb5" id="svg_112"/>
  <path d="m97.24,483.17c36.52,26.42 51.73,67.74 51.73,67.74s-44,-1.51 -80.53,-27.93s-51.72,-67.73 -51.72,-67.73s44.01,1.51 80.52,27.92z" fill="#3182ce" id="svg_113"/>
  <path d="m16.72,455.25s45.67,25.32 60.32,46.32s71.92,49.32 71.92,49.32" fill="none" stroke="#535461" stroke-miterlimit="10" stroke-width="2" id="svg_114"/>
  <path d="m120.81,429.95c19.88,14.37 28.16,36.87 28.16,36.87s-24,-0.83 -43.83,-15.2s-28.1,-36.87 -28.1,-36.87s23.9,0.82 43.77,15.2z" fill="#3182ce" id="svg_115"/>
  <path d="m77.04,414.75s24.86,13.8 32.83,25.22s39.15,26.85 39.15,26.85" fill="none" stroke="#535461" stroke-miterlimit="10" stroke-width="2" id="svg_116"/>
  <path d="m177.85,465.67c-22.81,25.09 -27.66,57.9 -27.66,57.9s32.19,-7.9 55,-33s27.66,-57.88 27.66,-57.88s-32.17,7.88 -55,32.98z" fill="#3182ce" id="svg_117"/>
  <path d="m232.87,432.68s-29.74,25.72 -37.3,43.44s-45.38,47.45 -45.38,47.45" fill="none" stroke="#535461" stroke-miterlimit="10" stroke-width="2" id="svg_118"/>
 </g>
</svg>